%TF.GenerationSoftware,KiCad,Pcbnew,(5.1.9)-1*%
%TF.CreationDate,2022-05-22T22:27:41-05:00*%
%TF.ProjectId,rx02-emulator-mega-shield,72783032-2d65-46d7-956c-61746f722d6d,rev?*%
%TF.SameCoordinates,Original*%
%TF.FileFunction,Legend,Top*%
%TF.FilePolarity,Positive*%
%FSLAX46Y46*%
G04 Gerber Fmt 4.6, Leading zero omitted, Abs format (unit mm)*
G04 Created by KiCad (PCBNEW (5.1.9)-1) date 2022-05-22 22:27:41*
%MOMM*%
%LPD*%
G01*
G04 APERTURE LIST*
%ADD10C,0.150000*%
%ADD11C,0.200000*%
%ADD12C,0.120000*%
%ADD13C,0.127000*%
G04 APERTURE END LIST*
D10*
X177236380Y-55149523D02*
X176236380Y-55149523D01*
X176236380Y-54768571D01*
X176284000Y-54673333D01*
X176331619Y-54625714D01*
X176426857Y-54578095D01*
X176569714Y-54578095D01*
X176664952Y-54625714D01*
X176712571Y-54673333D01*
X176760190Y-54768571D01*
X176760190Y-55149523D01*
X177236380Y-54149523D02*
X176569714Y-54149523D01*
X176236380Y-54149523D02*
X176284000Y-54197142D01*
X176331619Y-54149523D01*
X176284000Y-54101904D01*
X176236380Y-54149523D01*
X176331619Y-54149523D01*
X176569714Y-53673333D02*
X177236380Y-53673333D01*
X176664952Y-53673333D02*
X176617333Y-53625714D01*
X176569714Y-53530476D01*
X176569714Y-53387619D01*
X176617333Y-53292380D01*
X176712571Y-53244761D01*
X177236380Y-53244761D01*
X177236380Y-51482857D02*
X177236380Y-52054285D01*
X177236380Y-51768571D02*
X176236380Y-51768571D01*
X176379238Y-51863809D01*
X176474476Y-51959047D01*
X176522095Y-52054285D01*
D11*
X111244666Y-117966380D02*
X110911333Y-117490190D01*
X110673238Y-117966380D02*
X110673238Y-116966380D01*
X111054190Y-116966380D01*
X111149428Y-117014000D01*
X111197047Y-117061619D01*
X111244666Y-117156857D01*
X111244666Y-117299714D01*
X111197047Y-117394952D01*
X111149428Y-117442571D01*
X111054190Y-117490190D01*
X110673238Y-117490190D01*
X111578000Y-116966380D02*
X112244666Y-117966380D01*
X112244666Y-116966380D02*
X111578000Y-117966380D01*
X112816095Y-116966380D02*
X112911333Y-116966380D01*
X113006571Y-117014000D01*
X113054190Y-117061619D01*
X113101809Y-117156857D01*
X113149428Y-117347333D01*
X113149428Y-117585428D01*
X113101809Y-117775904D01*
X113054190Y-117871142D01*
X113006571Y-117918761D01*
X112911333Y-117966380D01*
X112816095Y-117966380D01*
X112720857Y-117918761D01*
X112673238Y-117871142D01*
X112625619Y-117775904D01*
X112578000Y-117585428D01*
X112578000Y-117347333D01*
X112625619Y-117156857D01*
X112673238Y-117061619D01*
X112720857Y-117014000D01*
X112816095Y-116966380D01*
X113530380Y-117061619D02*
X113578000Y-117014000D01*
X113673238Y-116966380D01*
X113911333Y-116966380D01*
X114006571Y-117014000D01*
X114054190Y-117061619D01*
X114101809Y-117156857D01*
X114101809Y-117252095D01*
X114054190Y-117394952D01*
X113482761Y-117966380D01*
X114101809Y-117966380D01*
X115292285Y-117442571D02*
X115625619Y-117442571D01*
X115768476Y-117966380D02*
X115292285Y-117966380D01*
X115292285Y-116966380D01*
X115768476Y-116966380D01*
X116197047Y-117966380D02*
X116197047Y-117299714D01*
X116197047Y-117394952D02*
X116244666Y-117347333D01*
X116339904Y-117299714D01*
X116482761Y-117299714D01*
X116578000Y-117347333D01*
X116625619Y-117442571D01*
X116625619Y-117966380D01*
X116625619Y-117442571D02*
X116673238Y-117347333D01*
X116768476Y-117299714D01*
X116911333Y-117299714D01*
X117006571Y-117347333D01*
X117054190Y-117442571D01*
X117054190Y-117966380D01*
X117958952Y-117299714D02*
X117958952Y-117966380D01*
X117530380Y-117299714D02*
X117530380Y-117823523D01*
X117578000Y-117918761D01*
X117673238Y-117966380D01*
X117816095Y-117966380D01*
X117911333Y-117918761D01*
X117958952Y-117871142D01*
X118578000Y-117966380D02*
X118482761Y-117918761D01*
X118435142Y-117823523D01*
X118435142Y-116966380D01*
X119387523Y-117966380D02*
X119387523Y-117442571D01*
X119339904Y-117347333D01*
X119244666Y-117299714D01*
X119054190Y-117299714D01*
X118958952Y-117347333D01*
X119387523Y-117918761D02*
X119292285Y-117966380D01*
X119054190Y-117966380D01*
X118958952Y-117918761D01*
X118911333Y-117823523D01*
X118911333Y-117728285D01*
X118958952Y-117633047D01*
X119054190Y-117585428D01*
X119292285Y-117585428D01*
X119387523Y-117537809D01*
X119720857Y-117299714D02*
X120101809Y-117299714D01*
X119863714Y-116966380D02*
X119863714Y-117823523D01*
X119911333Y-117918761D01*
X120006571Y-117966380D01*
X120101809Y-117966380D01*
X120577999Y-117966380D02*
X120482761Y-117918761D01*
X120435142Y-117871142D01*
X120387523Y-117775904D01*
X120387523Y-117490190D01*
X120435142Y-117394952D01*
X120482761Y-117347333D01*
X120577999Y-117299714D01*
X120720857Y-117299714D01*
X120816095Y-117347333D01*
X120863714Y-117394952D01*
X120911333Y-117490190D01*
X120911333Y-117775904D01*
X120863714Y-117871142D01*
X120816095Y-117918761D01*
X120720857Y-117966380D01*
X120577999Y-117966380D01*
X121339904Y-117966380D02*
X121339904Y-117299714D01*
X121339904Y-117490190D02*
X121387523Y-117394952D01*
X121435142Y-117347333D01*
X121530380Y-117299714D01*
X121625619Y-117299714D01*
X107982761Y-119666380D02*
X107982761Y-118666380D01*
X108316095Y-119380666D01*
X108649428Y-118666380D01*
X108649428Y-119666380D01*
X109506571Y-119618761D02*
X109411333Y-119666380D01*
X109220857Y-119666380D01*
X109125619Y-119618761D01*
X109078000Y-119523523D01*
X109078000Y-119142571D01*
X109125619Y-119047333D01*
X109220857Y-118999714D01*
X109411333Y-118999714D01*
X109506571Y-119047333D01*
X109554190Y-119142571D01*
X109554190Y-119237809D01*
X109078000Y-119333047D01*
X110411333Y-118999714D02*
X110411333Y-119809238D01*
X110363714Y-119904476D01*
X110316095Y-119952095D01*
X110220857Y-119999714D01*
X110078000Y-119999714D01*
X109982761Y-119952095D01*
X110411333Y-119618761D02*
X110316095Y-119666380D01*
X110125619Y-119666380D01*
X110030380Y-119618761D01*
X109982761Y-119571142D01*
X109935142Y-119475904D01*
X109935142Y-119190190D01*
X109982761Y-119094952D01*
X110030380Y-119047333D01*
X110125619Y-118999714D01*
X110316095Y-118999714D01*
X110411333Y-119047333D01*
X111316095Y-119666380D02*
X111316095Y-119142571D01*
X111268476Y-119047333D01*
X111173238Y-118999714D01*
X110982761Y-118999714D01*
X110887523Y-119047333D01*
X111316095Y-119618761D02*
X111220857Y-119666380D01*
X110982761Y-119666380D01*
X110887523Y-119618761D01*
X110839904Y-119523523D01*
X110839904Y-119428285D01*
X110887523Y-119333047D01*
X110982761Y-119285428D01*
X111220857Y-119285428D01*
X111316095Y-119237809D01*
X113030380Y-119666380D02*
X112554190Y-119666380D01*
X112554190Y-118666380D01*
X113935142Y-119571142D02*
X113887523Y-119618761D01*
X113744666Y-119666380D01*
X113649428Y-119666380D01*
X113506571Y-119618761D01*
X113411333Y-119523523D01*
X113363714Y-119428285D01*
X113316095Y-119237809D01*
X113316095Y-119094952D01*
X113363714Y-118904476D01*
X113411333Y-118809238D01*
X113506571Y-118714000D01*
X113649428Y-118666380D01*
X113744666Y-118666380D01*
X113887523Y-118714000D01*
X113935142Y-118761619D01*
X114363714Y-119666380D02*
X114363714Y-118666380D01*
X114601809Y-118666380D01*
X114744666Y-118714000D01*
X114839904Y-118809238D01*
X114887523Y-118904476D01*
X114935142Y-119094952D01*
X114935142Y-119237809D01*
X114887523Y-119428285D01*
X114839904Y-119523523D01*
X114744666Y-119618761D01*
X114601809Y-119666380D01*
X114363714Y-119666380D01*
X116078000Y-119618761D02*
X116220857Y-119666380D01*
X116458952Y-119666380D01*
X116554190Y-119618761D01*
X116601809Y-119571142D01*
X116649428Y-119475904D01*
X116649428Y-119380666D01*
X116601809Y-119285428D01*
X116554190Y-119237809D01*
X116458952Y-119190190D01*
X116268476Y-119142571D01*
X116173238Y-119094952D01*
X116125619Y-119047333D01*
X116078000Y-118952095D01*
X116078000Y-118856857D01*
X116125619Y-118761619D01*
X116173238Y-118714000D01*
X116268476Y-118666380D01*
X116506571Y-118666380D01*
X116649428Y-118714000D01*
X117078000Y-119666380D02*
X117078000Y-118666380D01*
X117506571Y-119666380D02*
X117506571Y-119142571D01*
X117458952Y-119047333D01*
X117363714Y-118999714D01*
X117220857Y-118999714D01*
X117125619Y-119047333D01*
X117078000Y-119094952D01*
X117982761Y-119666380D02*
X117982761Y-118999714D01*
X117982761Y-118666380D02*
X117935142Y-118714000D01*
X117982761Y-118761619D01*
X118030380Y-118714000D01*
X117982761Y-118666380D01*
X117982761Y-118761619D01*
X118839904Y-119618761D02*
X118744666Y-119666380D01*
X118554190Y-119666380D01*
X118458952Y-119618761D01*
X118411333Y-119523523D01*
X118411333Y-119142571D01*
X118458952Y-119047333D01*
X118554190Y-118999714D01*
X118744666Y-118999714D01*
X118839904Y-119047333D01*
X118887523Y-119142571D01*
X118887523Y-119237809D01*
X118411333Y-119333047D01*
X119458952Y-119666380D02*
X119363714Y-119618761D01*
X119316095Y-119523523D01*
X119316095Y-118666380D01*
X120268476Y-119666380D02*
X120268476Y-118666380D01*
X120268476Y-119618761D02*
X120173238Y-119666380D01*
X119982761Y-119666380D01*
X119887523Y-119618761D01*
X119839904Y-119571142D01*
X119792285Y-119475904D01*
X119792285Y-119190190D01*
X119839904Y-119094952D01*
X119887523Y-119047333D01*
X119982761Y-118999714D01*
X120173238Y-118999714D01*
X120268476Y-119047333D01*
X121411333Y-118999714D02*
X121649428Y-119666380D01*
X121887523Y-118999714D01*
X122792285Y-119666380D02*
X122220857Y-119666380D01*
X122506571Y-119666380D02*
X122506571Y-118666380D01*
X122411333Y-118809238D01*
X122316095Y-118904476D01*
X122220857Y-118952095D01*
X123220857Y-119571142D02*
X123268476Y-119618761D01*
X123220857Y-119666380D01*
X123173238Y-119618761D01*
X123220857Y-119571142D01*
X123220857Y-119666380D01*
X123887523Y-118666380D02*
X123982761Y-118666380D01*
X124078000Y-118714000D01*
X124125619Y-118761619D01*
X124173238Y-118856857D01*
X124220857Y-119047333D01*
X124220857Y-119285428D01*
X124173238Y-119475904D01*
X124125619Y-119571142D01*
X124078000Y-119618761D01*
X123982761Y-119666380D01*
X123887523Y-119666380D01*
X123792285Y-119618761D01*
X123744666Y-119571142D01*
X123697047Y-119475904D01*
X123649428Y-119285428D01*
X123649428Y-119047333D01*
X123697047Y-118856857D01*
X123744666Y-118761619D01*
X123792285Y-118714000D01*
X123887523Y-118666380D01*
D10*
X131770380Y-116300285D02*
X131770380Y-116871714D01*
X131770380Y-116586000D02*
X130770380Y-116586000D01*
X130913238Y-116681238D01*
X131008476Y-116776476D01*
X131056095Y-116871714D01*
D12*
%TO.C,MOD1*%
X103385200Y-96120800D02*
X145135200Y-96120800D01*
X103385200Y-72120800D02*
X103385200Y-96120800D01*
X145135200Y-72120800D02*
X103385200Y-72120800D01*
X145135200Y-96120800D02*
X145135200Y-72120800D01*
X143381200Y-91570800D02*
X140381200Y-91570800D01*
X143381200Y-76670800D02*
X143381200Y-91570800D01*
X140381200Y-76670800D02*
X143381200Y-76670800D01*
X140381200Y-91570800D02*
X140381200Y-76670800D01*
%TO.C,Q7*%
X192300000Y-76890000D02*
X188700000Y-76890000D01*
X188691555Y-76912316D02*
G75*
G03*
X189720000Y-81190000I1808445J-1827684D01*
G01*
X192311875Y-76898259D02*
G75*
G02*
X191320000Y-81190000I-1811875J-1841741D01*
G01*
%TO.C,Q6*%
X192300000Y-81970000D02*
X188700000Y-81970000D01*
X188691555Y-81992316D02*
G75*
G03*
X189720000Y-86270000I1808445J-1827684D01*
G01*
X192311875Y-81978259D02*
G75*
G02*
X191320000Y-86270000I-1811875J-1841741D01*
G01*
%TO.C,Q5*%
X192300000Y-92130000D02*
X188700000Y-92130000D01*
X188691555Y-92152316D02*
G75*
G03*
X189720000Y-96430000I1808445J-1827684D01*
G01*
X192311875Y-92138259D02*
G75*
G02*
X191320000Y-96430000I-1811875J-1841741D01*
G01*
%TO.C,Q4*%
X192300000Y-87050000D02*
X188700000Y-87050000D01*
X188691555Y-87072316D02*
G75*
G03*
X189720000Y-91350000I1808445J-1827684D01*
G01*
X192311875Y-87058259D02*
G75*
G02*
X191320000Y-91350000I-1811875J-1841741D01*
G01*
%TO.C,Q3*%
X192300000Y-97210000D02*
X188700000Y-97210000D01*
X188691555Y-97232316D02*
G75*
G03*
X189720000Y-101510000I1808445J-1827684D01*
G01*
X192311875Y-97218259D02*
G75*
G02*
X191320000Y-101510000I-1811875J-1841741D01*
G01*
%TO.C,Q2*%
X192300000Y-107370000D02*
X188700000Y-107370000D01*
X188691555Y-107392316D02*
G75*
G03*
X189720000Y-111670000I1808445J-1827684D01*
G01*
X192311875Y-107378259D02*
G75*
G02*
X191320000Y-111670000I-1811875J-1841741D01*
G01*
%TO.C,Q1*%
X192300000Y-102290000D02*
X188700000Y-102290000D01*
X188691555Y-102312316D02*
G75*
G03*
X189720000Y-106590000I1808445J-1827684D01*
G01*
X192311875Y-102298259D02*
G75*
G02*
X191320000Y-106590000I-1811875J-1841741D01*
G01*
%TO.C,DS1*%
X103620000Y-99680000D02*
X183900000Y-99680000D01*
X183900000Y-99680000D02*
X183900000Y-63400000D01*
X183900000Y-63400000D02*
X104420000Y-63400000D01*
X103620000Y-63400000D02*
X103620000Y-99680000D01*
X103630000Y-63400000D02*
X104420000Y-63400000D01*
X110260000Y-63040000D02*
X113260000Y-63040000D01*
X111960000Y-74040000D02*
X175460000Y-74040000D01*
X111460280Y-88539320D02*
X111460280Y-74540000D01*
X175460660Y-89040000D02*
X111960000Y-89040000D01*
X175960000Y-74540000D02*
X175960000Y-88540000D01*
X106760000Y-69040000D02*
X179760000Y-69040000D01*
X179760000Y-69040000D02*
X179760000Y-94040000D01*
X179760000Y-94040000D02*
X106760000Y-94040000D01*
X106760000Y-94040000D02*
X106760000Y-69040000D01*
X111960660Y-74038460D02*
G75*
G03*
X111460280Y-74538840I0J-500380D01*
G01*
X111460280Y-88539320D02*
G75*
G03*
X111960660Y-89039700I500380J0D01*
G01*
X175460660Y-89039700D02*
G75*
G03*
X175961040Y-88539320I0J500380D01*
G01*
X175960000Y-74540000D02*
G75*
G03*
X175460000Y-74040000I-500000J0D01*
G01*
%TO.C,R23*%
X180570000Y-91408000D02*
X180240000Y-91408000D01*
X180240000Y-91408000D02*
X180240000Y-84868000D01*
X180240000Y-84868000D02*
X180570000Y-84868000D01*
X182650000Y-91408000D02*
X182980000Y-91408000D01*
X182980000Y-91408000D02*
X182980000Y-84868000D01*
X182980000Y-84868000D02*
X182650000Y-84868000D01*
%TO.C,R20*%
X177522000Y-91408000D02*
X177192000Y-91408000D01*
X177192000Y-91408000D02*
X177192000Y-84868000D01*
X177192000Y-84868000D02*
X177522000Y-84868000D01*
X179602000Y-91408000D02*
X179932000Y-91408000D01*
X179932000Y-91408000D02*
X179932000Y-84868000D01*
X179932000Y-84868000D02*
X179602000Y-84868000D01*
%TO.C,R18*%
X174474000Y-91408000D02*
X174144000Y-91408000D01*
X174144000Y-91408000D02*
X174144000Y-84868000D01*
X174144000Y-84868000D02*
X174474000Y-84868000D01*
X176554000Y-91408000D02*
X176884000Y-91408000D01*
X176884000Y-91408000D02*
X176884000Y-84868000D01*
X176884000Y-84868000D02*
X176554000Y-84868000D01*
%TO.C,R16*%
X171426000Y-91408000D02*
X171096000Y-91408000D01*
X171096000Y-91408000D02*
X171096000Y-84868000D01*
X171096000Y-84868000D02*
X171426000Y-84868000D01*
X173506000Y-91408000D02*
X173836000Y-91408000D01*
X173836000Y-91408000D02*
X173836000Y-84868000D01*
X173836000Y-84868000D02*
X173506000Y-84868000D01*
%TO.C,R14*%
X168378000Y-91408000D02*
X168048000Y-91408000D01*
X168048000Y-91408000D02*
X168048000Y-84868000D01*
X168048000Y-84868000D02*
X168378000Y-84868000D01*
X170458000Y-91408000D02*
X170788000Y-91408000D01*
X170788000Y-91408000D02*
X170788000Y-84868000D01*
X170788000Y-84868000D02*
X170458000Y-84868000D01*
%TO.C,R12*%
X165330000Y-91408000D02*
X165000000Y-91408000D01*
X165000000Y-91408000D02*
X165000000Y-84868000D01*
X165000000Y-84868000D02*
X165330000Y-84868000D01*
X167410000Y-91408000D02*
X167740000Y-91408000D01*
X167740000Y-91408000D02*
X167740000Y-84868000D01*
X167740000Y-84868000D02*
X167410000Y-84868000D01*
%TO.C,R10*%
X162282000Y-91408000D02*
X161952000Y-91408000D01*
X161952000Y-91408000D02*
X161952000Y-84868000D01*
X161952000Y-84868000D02*
X162282000Y-84868000D01*
X164362000Y-91408000D02*
X164692000Y-91408000D01*
X164692000Y-91408000D02*
X164692000Y-84868000D01*
X164692000Y-84868000D02*
X164362000Y-84868000D01*
%TO.C,R8*%
X159234000Y-91408000D02*
X158904000Y-91408000D01*
X158904000Y-91408000D02*
X158904000Y-84868000D01*
X158904000Y-84868000D02*
X159234000Y-84868000D01*
X161314000Y-91408000D02*
X161644000Y-91408000D01*
X161644000Y-91408000D02*
X161644000Y-84868000D01*
X161644000Y-84868000D02*
X161314000Y-84868000D01*
%TO.C,R6*%
X156186000Y-91408000D02*
X155856000Y-91408000D01*
X155856000Y-91408000D02*
X155856000Y-84868000D01*
X155856000Y-84868000D02*
X156186000Y-84868000D01*
X158266000Y-91408000D02*
X158596000Y-91408000D01*
X158596000Y-91408000D02*
X158596000Y-84868000D01*
X158596000Y-84868000D02*
X158266000Y-84868000D01*
%TO.C,R4*%
X153138000Y-91408000D02*
X152808000Y-91408000D01*
X152808000Y-91408000D02*
X152808000Y-84868000D01*
X152808000Y-84868000D02*
X153138000Y-84868000D01*
X155218000Y-91408000D02*
X155548000Y-91408000D01*
X155548000Y-91408000D02*
X155548000Y-84868000D01*
X155548000Y-84868000D02*
X155218000Y-84868000D01*
%TO.C,R2*%
X150090000Y-91408000D02*
X149760000Y-91408000D01*
X149760000Y-91408000D02*
X149760000Y-84868000D01*
X149760000Y-84868000D02*
X150090000Y-84868000D01*
X152170000Y-91408000D02*
X152500000Y-91408000D01*
X152500000Y-91408000D02*
X152500000Y-84868000D01*
X152500000Y-84868000D02*
X152170000Y-84868000D01*
%TO.C,R22*%
X180570000Y-81502000D02*
X180240000Y-81502000D01*
X180240000Y-81502000D02*
X180240000Y-74962000D01*
X180240000Y-74962000D02*
X180570000Y-74962000D01*
X182650000Y-81502000D02*
X182980000Y-81502000D01*
X182980000Y-81502000D02*
X182980000Y-74962000D01*
X182980000Y-74962000D02*
X182650000Y-74962000D01*
%TO.C,R19*%
X177522000Y-81502000D02*
X177192000Y-81502000D01*
X177192000Y-81502000D02*
X177192000Y-74962000D01*
X177192000Y-74962000D02*
X177522000Y-74962000D01*
X179602000Y-81502000D02*
X179932000Y-81502000D01*
X179932000Y-81502000D02*
X179932000Y-74962000D01*
X179932000Y-74962000D02*
X179602000Y-74962000D01*
%TO.C,R17*%
X174474000Y-81502000D02*
X174144000Y-81502000D01*
X174144000Y-81502000D02*
X174144000Y-74962000D01*
X174144000Y-74962000D02*
X174474000Y-74962000D01*
X176554000Y-81502000D02*
X176884000Y-81502000D01*
X176884000Y-81502000D02*
X176884000Y-74962000D01*
X176884000Y-74962000D02*
X176554000Y-74962000D01*
%TO.C,R15*%
X171426000Y-81502000D02*
X171096000Y-81502000D01*
X171096000Y-81502000D02*
X171096000Y-74962000D01*
X171096000Y-74962000D02*
X171426000Y-74962000D01*
X173506000Y-81502000D02*
X173836000Y-81502000D01*
X173836000Y-81502000D02*
X173836000Y-74962000D01*
X173836000Y-74962000D02*
X173506000Y-74962000D01*
%TO.C,R13*%
X168378000Y-81502000D02*
X168048000Y-81502000D01*
X168048000Y-81502000D02*
X168048000Y-74962000D01*
X168048000Y-74962000D02*
X168378000Y-74962000D01*
X170458000Y-81502000D02*
X170788000Y-81502000D01*
X170788000Y-81502000D02*
X170788000Y-74962000D01*
X170788000Y-74962000D02*
X170458000Y-74962000D01*
%TO.C,R11*%
X165330000Y-81502000D02*
X165000000Y-81502000D01*
X165000000Y-81502000D02*
X165000000Y-74962000D01*
X165000000Y-74962000D02*
X165330000Y-74962000D01*
X167410000Y-81502000D02*
X167740000Y-81502000D01*
X167740000Y-81502000D02*
X167740000Y-74962000D01*
X167740000Y-74962000D02*
X167410000Y-74962000D01*
%TO.C,R9*%
X162282000Y-81502000D02*
X161952000Y-81502000D01*
X161952000Y-81502000D02*
X161952000Y-74962000D01*
X161952000Y-74962000D02*
X162282000Y-74962000D01*
X164362000Y-81502000D02*
X164692000Y-81502000D01*
X164692000Y-81502000D02*
X164692000Y-74962000D01*
X164692000Y-74962000D02*
X164362000Y-74962000D01*
%TO.C,R7*%
X159234000Y-81502000D02*
X158904000Y-81502000D01*
X158904000Y-81502000D02*
X158904000Y-74962000D01*
X158904000Y-74962000D02*
X159234000Y-74962000D01*
X161314000Y-81502000D02*
X161644000Y-81502000D01*
X161644000Y-81502000D02*
X161644000Y-74962000D01*
X161644000Y-74962000D02*
X161314000Y-74962000D01*
%TO.C,R5*%
X156186000Y-81502000D02*
X155856000Y-81502000D01*
X155856000Y-81502000D02*
X155856000Y-74962000D01*
X155856000Y-74962000D02*
X156186000Y-74962000D01*
X158266000Y-81502000D02*
X158596000Y-81502000D01*
X158596000Y-81502000D02*
X158596000Y-74962000D01*
X158596000Y-74962000D02*
X158266000Y-74962000D01*
%TO.C,R3*%
X153138000Y-81502000D02*
X152808000Y-81502000D01*
X152808000Y-81502000D02*
X152808000Y-74962000D01*
X152808000Y-74962000D02*
X153138000Y-74962000D01*
X155218000Y-81502000D02*
X155548000Y-81502000D01*
X155548000Y-81502000D02*
X155548000Y-74962000D01*
X155548000Y-74962000D02*
X155218000Y-74962000D01*
%TO.C,R1*%
X150090000Y-81502000D02*
X149760000Y-81502000D01*
X149760000Y-81502000D02*
X149760000Y-74962000D01*
X149760000Y-74962000D02*
X150090000Y-74962000D01*
X152170000Y-81502000D02*
X152500000Y-81502000D01*
X152500000Y-81502000D02*
X152500000Y-74962000D01*
X152500000Y-74962000D02*
X152170000Y-74962000D01*
%TO.C,R21*%
X148690000Y-76740000D02*
X148360000Y-76740000D01*
X148690000Y-83280000D02*
X148690000Y-76740000D01*
X148360000Y-83280000D02*
X148690000Y-83280000D01*
X145950000Y-76740000D02*
X146280000Y-76740000D01*
X145950000Y-83280000D02*
X145950000Y-76740000D01*
X146280000Y-83280000D02*
X145950000Y-83280000D01*
%TO.C,JP1*%
X148320000Y-78647000D02*
X148320000Y-81447000D01*
X148320000Y-81447000D02*
X146320000Y-81447000D01*
X146320000Y-81447000D02*
X146320000Y-78647000D01*
X146320000Y-78647000D02*
X148320000Y-78647000D01*
%TO.C,SW2*%
X140100000Y-113490000D02*
X140100000Y-111990000D01*
X138850000Y-109490000D02*
X134350000Y-109490000D01*
X133100000Y-111990000D02*
X133100000Y-113490000D01*
X134350000Y-115990000D02*
X138850000Y-115990000D01*
%TO.C,R25*%
X170830000Y-115728000D02*
X166990000Y-115728000D01*
X170830000Y-113888000D02*
X166990000Y-113888000D01*
%TO.C,U1*%
X197418000Y-56150000D02*
X197418000Y-54900000D01*
X197418000Y-54900000D02*
X179518000Y-54900000D01*
X179518000Y-54900000D02*
X179518000Y-59400000D01*
X179518000Y-59400000D02*
X197418000Y-59400000D01*
X197418000Y-59400000D02*
X197418000Y-58150000D01*
X197478000Y-51900000D02*
X179458000Y-51900000D01*
X179458000Y-51900000D02*
X179458000Y-62400000D01*
X179458000Y-62400000D02*
X197478000Y-62400000D01*
X197478000Y-62400000D02*
X197478000Y-51900000D01*
X197418000Y-58150000D02*
G75*
G02*
X197418000Y-56150000I0J1000000D01*
G01*
%TO.C,SW4*%
X146900000Y-112180000D02*
X151400000Y-112180000D01*
X145650000Y-108180000D02*
X145650000Y-109680000D01*
X151400000Y-105680000D02*
X146900000Y-105680000D01*
X152650000Y-109680000D02*
X152650000Y-108180000D01*
%TO.C,SW3*%
X134350000Y-107100000D02*
X138850000Y-107100000D01*
X133100000Y-103100000D02*
X133100000Y-104600000D01*
X138850000Y-100600000D02*
X134350000Y-100600000D01*
X140100000Y-104600000D02*
X140100000Y-103100000D01*
%TO.C,SW1*%
X121650000Y-112180000D02*
X126150000Y-112180000D01*
X120400000Y-108180000D02*
X120400000Y-109680000D01*
X126150000Y-105680000D02*
X121650000Y-105680000D01*
X127400000Y-109680000D02*
X127400000Y-108180000D01*
D13*
%TO.C,RV1*%
X106970000Y-53850000D02*
X109255000Y-53850000D01*
X111795000Y-53850000D02*
X113960000Y-53850000D01*
X113960000Y-53850000D02*
X113960000Y-60450000D01*
X113960000Y-60450000D02*
X111795000Y-60450000D01*
X109255000Y-60450000D02*
X106970000Y-60450000D01*
X106960000Y-60450000D02*
X106960000Y-53850000D01*
D11*
X110590000Y-53086000D02*
G75*
G03*
X110590000Y-53086000I-100000J0D01*
G01*
D12*
%TO.C,R26*%
X178196000Y-115728000D02*
X174356000Y-115728000D01*
X178196000Y-113888000D02*
X174356000Y-113888000D01*
%TO.C,R24*%
X159624000Y-113888000D02*
X163464000Y-113888000D01*
X159624000Y-115728000D02*
X163464000Y-115728000D01*
%TO.C,J1*%
X175390000Y-51320000D02*
X175390000Y-60440000D01*
X175390000Y-60440000D02*
X116710000Y-60440000D01*
X116710000Y-60440000D02*
X116710000Y-51320000D01*
X116710000Y-51320000D02*
X175390000Y-51320000D01*
X148100000Y-51320000D02*
X148100000Y-52630000D01*
X148100000Y-52630000D02*
X174090000Y-52630000D01*
X174090000Y-52630000D02*
X174090000Y-59130000D01*
X174090000Y-59130000D02*
X118010000Y-59130000D01*
X118010000Y-59130000D02*
X118010000Y-52630000D01*
X118010000Y-52630000D02*
X144000000Y-52630000D01*
X144000000Y-52630000D02*
X144000000Y-52630000D01*
X144000000Y-52630000D02*
X144000000Y-51320000D01*
X170180000Y-50930000D02*
X170680000Y-49930000D01*
X170680000Y-49930000D02*
X169680000Y-49930000D01*
X169680000Y-49930000D02*
X170180000Y-50930000D01*
%TO.C,D3*%
X178776000Y-108966000D02*
G75*
G03*
X178776000Y-108966000I-2500000J0D01*
G01*
X177821000Y-106406000D02*
X174731000Y-106406000D01*
X176276462Y-111956000D02*
G75*
G02*
X174731170Y-106406000I-462J2990000D01*
G01*
X176275538Y-111956000D02*
G75*
G03*
X177820830Y-106406000I462J2990000D01*
G01*
%TO.C,D2*%
X171410000Y-108966000D02*
G75*
G03*
X171410000Y-108966000I-2500000J0D01*
G01*
X170455000Y-106406000D02*
X167365000Y-106406000D01*
X168910462Y-111956000D02*
G75*
G02*
X167365170Y-106406000I-462J2990000D01*
G01*
X168909538Y-111956000D02*
G75*
G03*
X170454830Y-106406000I462J2990000D01*
G01*
%TO.C,D1*%
X164044000Y-108966000D02*
G75*
G03*
X164044000Y-108966000I-2500000J0D01*
G01*
X163089000Y-106406000D02*
X159999000Y-106406000D01*
X161544462Y-111956000D02*
G75*
G02*
X159999170Y-106406000I-462J2990000D01*
G01*
X161543538Y-111956000D02*
G75*
G03*
X163088830Y-106406000I462J2990000D01*
G01*
%TO.C,C5*%
X153042000Y-93372000D02*
X158282000Y-93372000D01*
X153042000Y-96112000D02*
X158282000Y-96112000D01*
X153042000Y-93372000D02*
X153042000Y-93687000D01*
X153042000Y-95797000D02*
X153042000Y-96112000D01*
X158282000Y-93372000D02*
X158282000Y-93687000D01*
X158282000Y-95797000D02*
X158282000Y-96112000D01*
%TO.C,C4*%
X198782000Y-59556000D02*
X198782000Y-54316000D01*
X201522000Y-59556000D02*
X201522000Y-54316000D01*
X198782000Y-59556000D02*
X199097000Y-59556000D01*
X201207000Y-59556000D02*
X201522000Y-59556000D01*
X198782000Y-54316000D02*
X199097000Y-54316000D01*
X201207000Y-54316000D02*
X201522000Y-54316000D01*
%TO.C,C3*%
X177078000Y-96112000D02*
X171838000Y-96112000D01*
X177078000Y-93372000D02*
X171838000Y-93372000D01*
X177078000Y-96112000D02*
X177078000Y-95797000D01*
X177078000Y-93687000D02*
X177078000Y-93372000D01*
X171838000Y-96112000D02*
X171838000Y-95797000D01*
X171838000Y-93687000D02*
X171838000Y-93372000D01*
%TO.C,C2*%
X201522000Y-65786000D02*
G75*
G03*
X201522000Y-65786000I-2620000J0D01*
G01*
X198902000Y-68366000D02*
X198902000Y-63206000D01*
X198862000Y-68366000D02*
X198862000Y-63206000D01*
X198822000Y-68365000D02*
X198822000Y-63207000D01*
X198782000Y-68364000D02*
X198782000Y-63208000D01*
X198742000Y-68362000D02*
X198742000Y-63210000D01*
X198702000Y-68359000D02*
X198702000Y-63213000D01*
X198662000Y-68355000D02*
X198662000Y-66826000D01*
X198662000Y-64746000D02*
X198662000Y-63217000D01*
X198622000Y-68351000D02*
X198622000Y-66826000D01*
X198622000Y-64746000D02*
X198622000Y-63221000D01*
X198582000Y-68347000D02*
X198582000Y-66826000D01*
X198582000Y-64746000D02*
X198582000Y-63225000D01*
X198542000Y-68342000D02*
X198542000Y-66826000D01*
X198542000Y-64746000D02*
X198542000Y-63230000D01*
X198502000Y-68336000D02*
X198502000Y-66826000D01*
X198502000Y-64746000D02*
X198502000Y-63236000D01*
X198462000Y-68329000D02*
X198462000Y-66826000D01*
X198462000Y-64746000D02*
X198462000Y-63243000D01*
X198422000Y-68322000D02*
X198422000Y-66826000D01*
X198422000Y-64746000D02*
X198422000Y-63250000D01*
X198382000Y-68314000D02*
X198382000Y-66826000D01*
X198382000Y-64746000D02*
X198382000Y-63258000D01*
X198342000Y-68306000D02*
X198342000Y-66826000D01*
X198342000Y-64746000D02*
X198342000Y-63266000D01*
X198302000Y-68297000D02*
X198302000Y-66826000D01*
X198302000Y-64746000D02*
X198302000Y-63275000D01*
X198262000Y-68287000D02*
X198262000Y-66826000D01*
X198262000Y-64746000D02*
X198262000Y-63285000D01*
X198222000Y-68277000D02*
X198222000Y-66826000D01*
X198222000Y-64746000D02*
X198222000Y-63295000D01*
X198181000Y-68266000D02*
X198181000Y-66826000D01*
X198181000Y-64746000D02*
X198181000Y-63306000D01*
X198141000Y-68254000D02*
X198141000Y-66826000D01*
X198141000Y-64746000D02*
X198141000Y-63318000D01*
X198101000Y-68241000D02*
X198101000Y-66826000D01*
X198101000Y-64746000D02*
X198101000Y-63331000D01*
X198061000Y-68228000D02*
X198061000Y-66826000D01*
X198061000Y-64746000D02*
X198061000Y-63344000D01*
X198021000Y-68214000D02*
X198021000Y-66826000D01*
X198021000Y-64746000D02*
X198021000Y-63358000D01*
X197981000Y-68200000D02*
X197981000Y-66826000D01*
X197981000Y-64746000D02*
X197981000Y-63372000D01*
X197941000Y-68184000D02*
X197941000Y-66826000D01*
X197941000Y-64746000D02*
X197941000Y-63388000D01*
X197901000Y-68168000D02*
X197901000Y-66826000D01*
X197901000Y-64746000D02*
X197901000Y-63404000D01*
X197861000Y-68151000D02*
X197861000Y-66826000D01*
X197861000Y-64746000D02*
X197861000Y-63421000D01*
X197821000Y-68134000D02*
X197821000Y-66826000D01*
X197821000Y-64746000D02*
X197821000Y-63438000D01*
X197781000Y-68115000D02*
X197781000Y-66826000D01*
X197781000Y-64746000D02*
X197781000Y-63457000D01*
X197741000Y-68096000D02*
X197741000Y-66826000D01*
X197741000Y-64746000D02*
X197741000Y-63476000D01*
X197701000Y-68076000D02*
X197701000Y-66826000D01*
X197701000Y-64746000D02*
X197701000Y-63496000D01*
X197661000Y-68054000D02*
X197661000Y-66826000D01*
X197661000Y-64746000D02*
X197661000Y-63518000D01*
X197621000Y-68033000D02*
X197621000Y-66826000D01*
X197621000Y-64746000D02*
X197621000Y-63539000D01*
X197581000Y-68010000D02*
X197581000Y-66826000D01*
X197581000Y-64746000D02*
X197581000Y-63562000D01*
X197541000Y-67986000D02*
X197541000Y-66826000D01*
X197541000Y-64746000D02*
X197541000Y-63586000D01*
X197501000Y-67961000D02*
X197501000Y-66826000D01*
X197501000Y-64746000D02*
X197501000Y-63611000D01*
X197461000Y-67935000D02*
X197461000Y-66826000D01*
X197461000Y-64746000D02*
X197461000Y-63637000D01*
X197421000Y-67908000D02*
X197421000Y-66826000D01*
X197421000Y-64746000D02*
X197421000Y-63664000D01*
X197381000Y-67881000D02*
X197381000Y-66826000D01*
X197381000Y-64746000D02*
X197381000Y-63691000D01*
X197341000Y-67851000D02*
X197341000Y-66826000D01*
X197341000Y-64746000D02*
X197341000Y-63721000D01*
X197301000Y-67821000D02*
X197301000Y-66826000D01*
X197301000Y-64746000D02*
X197301000Y-63751000D01*
X197261000Y-67790000D02*
X197261000Y-66826000D01*
X197261000Y-64746000D02*
X197261000Y-63782000D01*
X197221000Y-67757000D02*
X197221000Y-66826000D01*
X197221000Y-64746000D02*
X197221000Y-63815000D01*
X197181000Y-67723000D02*
X197181000Y-66826000D01*
X197181000Y-64746000D02*
X197181000Y-63849000D01*
X197141000Y-67687000D02*
X197141000Y-66826000D01*
X197141000Y-64746000D02*
X197141000Y-63885000D01*
X197101000Y-67650000D02*
X197101000Y-66826000D01*
X197101000Y-64746000D02*
X197101000Y-63922000D01*
X197061000Y-67612000D02*
X197061000Y-66826000D01*
X197061000Y-64746000D02*
X197061000Y-63960000D01*
X197021000Y-67571000D02*
X197021000Y-66826000D01*
X197021000Y-64746000D02*
X197021000Y-64001000D01*
X196981000Y-67529000D02*
X196981000Y-66826000D01*
X196981000Y-64746000D02*
X196981000Y-64043000D01*
X196941000Y-67485000D02*
X196941000Y-66826000D01*
X196941000Y-64746000D02*
X196941000Y-64087000D01*
X196901000Y-67439000D02*
X196901000Y-66826000D01*
X196901000Y-64746000D02*
X196901000Y-64133000D01*
X196861000Y-67391000D02*
X196861000Y-66826000D01*
X196861000Y-64746000D02*
X196861000Y-64181000D01*
X196821000Y-67340000D02*
X196821000Y-66826000D01*
X196821000Y-64746000D02*
X196821000Y-64232000D01*
X196781000Y-67286000D02*
X196781000Y-66826000D01*
X196781000Y-64746000D02*
X196781000Y-64286000D01*
X196741000Y-67229000D02*
X196741000Y-66826000D01*
X196741000Y-64746000D02*
X196741000Y-64343000D01*
X196701000Y-67169000D02*
X196701000Y-66826000D01*
X196701000Y-64746000D02*
X196701000Y-64403000D01*
X196661000Y-67105000D02*
X196661000Y-66826000D01*
X196661000Y-64746000D02*
X196661000Y-64467000D01*
X196621000Y-67037000D02*
X196621000Y-66826000D01*
X196621000Y-64746000D02*
X196621000Y-64535000D01*
X196581000Y-66964000D02*
X196581000Y-64608000D01*
X196541000Y-66884000D02*
X196541000Y-64688000D01*
X196501000Y-66797000D02*
X196501000Y-64775000D01*
X196461000Y-66701000D02*
X196461000Y-64871000D01*
X196421000Y-66591000D02*
X196421000Y-64981000D01*
X196381000Y-66463000D02*
X196381000Y-65109000D01*
X196341000Y-66304000D02*
X196341000Y-65268000D01*
X196301000Y-66070000D02*
X196301000Y-65502000D01*
X201706775Y-67261000D02*
X201206775Y-67261000D01*
X201456775Y-67511000D02*
X201456775Y-67011000D01*
%TO.C,C1*%
X113384000Y-105410000D02*
G75*
G03*
X113384000Y-105410000I-2620000J0D01*
G01*
X110764000Y-107990000D02*
X110764000Y-102830000D01*
X110724000Y-107990000D02*
X110724000Y-102830000D01*
X110684000Y-107989000D02*
X110684000Y-102831000D01*
X110644000Y-107988000D02*
X110644000Y-102832000D01*
X110604000Y-107986000D02*
X110604000Y-102834000D01*
X110564000Y-107983000D02*
X110564000Y-102837000D01*
X110524000Y-107979000D02*
X110524000Y-106450000D01*
X110524000Y-104370000D02*
X110524000Y-102841000D01*
X110484000Y-107975000D02*
X110484000Y-106450000D01*
X110484000Y-104370000D02*
X110484000Y-102845000D01*
X110444000Y-107971000D02*
X110444000Y-106450000D01*
X110444000Y-104370000D02*
X110444000Y-102849000D01*
X110404000Y-107966000D02*
X110404000Y-106450000D01*
X110404000Y-104370000D02*
X110404000Y-102854000D01*
X110364000Y-107960000D02*
X110364000Y-106450000D01*
X110364000Y-104370000D02*
X110364000Y-102860000D01*
X110324000Y-107953000D02*
X110324000Y-106450000D01*
X110324000Y-104370000D02*
X110324000Y-102867000D01*
X110284000Y-107946000D02*
X110284000Y-106450000D01*
X110284000Y-104370000D02*
X110284000Y-102874000D01*
X110244000Y-107938000D02*
X110244000Y-106450000D01*
X110244000Y-104370000D02*
X110244000Y-102882000D01*
X110204000Y-107930000D02*
X110204000Y-106450000D01*
X110204000Y-104370000D02*
X110204000Y-102890000D01*
X110164000Y-107921000D02*
X110164000Y-106450000D01*
X110164000Y-104370000D02*
X110164000Y-102899000D01*
X110124000Y-107911000D02*
X110124000Y-106450000D01*
X110124000Y-104370000D02*
X110124000Y-102909000D01*
X110084000Y-107901000D02*
X110084000Y-106450000D01*
X110084000Y-104370000D02*
X110084000Y-102919000D01*
X110043000Y-107890000D02*
X110043000Y-106450000D01*
X110043000Y-104370000D02*
X110043000Y-102930000D01*
X110003000Y-107878000D02*
X110003000Y-106450000D01*
X110003000Y-104370000D02*
X110003000Y-102942000D01*
X109963000Y-107865000D02*
X109963000Y-106450000D01*
X109963000Y-104370000D02*
X109963000Y-102955000D01*
X109923000Y-107852000D02*
X109923000Y-106450000D01*
X109923000Y-104370000D02*
X109923000Y-102968000D01*
X109883000Y-107838000D02*
X109883000Y-106450000D01*
X109883000Y-104370000D02*
X109883000Y-102982000D01*
X109843000Y-107824000D02*
X109843000Y-106450000D01*
X109843000Y-104370000D02*
X109843000Y-102996000D01*
X109803000Y-107808000D02*
X109803000Y-106450000D01*
X109803000Y-104370000D02*
X109803000Y-103012000D01*
X109763000Y-107792000D02*
X109763000Y-106450000D01*
X109763000Y-104370000D02*
X109763000Y-103028000D01*
X109723000Y-107775000D02*
X109723000Y-106450000D01*
X109723000Y-104370000D02*
X109723000Y-103045000D01*
X109683000Y-107758000D02*
X109683000Y-106450000D01*
X109683000Y-104370000D02*
X109683000Y-103062000D01*
X109643000Y-107739000D02*
X109643000Y-106450000D01*
X109643000Y-104370000D02*
X109643000Y-103081000D01*
X109603000Y-107720000D02*
X109603000Y-106450000D01*
X109603000Y-104370000D02*
X109603000Y-103100000D01*
X109563000Y-107700000D02*
X109563000Y-106450000D01*
X109563000Y-104370000D02*
X109563000Y-103120000D01*
X109523000Y-107678000D02*
X109523000Y-106450000D01*
X109523000Y-104370000D02*
X109523000Y-103142000D01*
X109483000Y-107657000D02*
X109483000Y-106450000D01*
X109483000Y-104370000D02*
X109483000Y-103163000D01*
X109443000Y-107634000D02*
X109443000Y-106450000D01*
X109443000Y-104370000D02*
X109443000Y-103186000D01*
X109403000Y-107610000D02*
X109403000Y-106450000D01*
X109403000Y-104370000D02*
X109403000Y-103210000D01*
X109363000Y-107585000D02*
X109363000Y-106450000D01*
X109363000Y-104370000D02*
X109363000Y-103235000D01*
X109323000Y-107559000D02*
X109323000Y-106450000D01*
X109323000Y-104370000D02*
X109323000Y-103261000D01*
X109283000Y-107532000D02*
X109283000Y-106450000D01*
X109283000Y-104370000D02*
X109283000Y-103288000D01*
X109243000Y-107505000D02*
X109243000Y-106450000D01*
X109243000Y-104370000D02*
X109243000Y-103315000D01*
X109203000Y-107475000D02*
X109203000Y-106450000D01*
X109203000Y-104370000D02*
X109203000Y-103345000D01*
X109163000Y-107445000D02*
X109163000Y-106450000D01*
X109163000Y-104370000D02*
X109163000Y-103375000D01*
X109123000Y-107414000D02*
X109123000Y-106450000D01*
X109123000Y-104370000D02*
X109123000Y-103406000D01*
X109083000Y-107381000D02*
X109083000Y-106450000D01*
X109083000Y-104370000D02*
X109083000Y-103439000D01*
X109043000Y-107347000D02*
X109043000Y-106450000D01*
X109043000Y-104370000D02*
X109043000Y-103473000D01*
X109003000Y-107311000D02*
X109003000Y-106450000D01*
X109003000Y-104370000D02*
X109003000Y-103509000D01*
X108963000Y-107274000D02*
X108963000Y-106450000D01*
X108963000Y-104370000D02*
X108963000Y-103546000D01*
X108923000Y-107236000D02*
X108923000Y-106450000D01*
X108923000Y-104370000D02*
X108923000Y-103584000D01*
X108883000Y-107195000D02*
X108883000Y-106450000D01*
X108883000Y-104370000D02*
X108883000Y-103625000D01*
X108843000Y-107153000D02*
X108843000Y-106450000D01*
X108843000Y-104370000D02*
X108843000Y-103667000D01*
X108803000Y-107109000D02*
X108803000Y-106450000D01*
X108803000Y-104370000D02*
X108803000Y-103711000D01*
X108763000Y-107063000D02*
X108763000Y-106450000D01*
X108763000Y-104370000D02*
X108763000Y-103757000D01*
X108723000Y-107015000D02*
X108723000Y-106450000D01*
X108723000Y-104370000D02*
X108723000Y-103805000D01*
X108683000Y-106964000D02*
X108683000Y-106450000D01*
X108683000Y-104370000D02*
X108683000Y-103856000D01*
X108643000Y-106910000D02*
X108643000Y-106450000D01*
X108643000Y-104370000D02*
X108643000Y-103910000D01*
X108603000Y-106853000D02*
X108603000Y-106450000D01*
X108603000Y-104370000D02*
X108603000Y-103967000D01*
X108563000Y-106793000D02*
X108563000Y-106450000D01*
X108563000Y-104370000D02*
X108563000Y-104027000D01*
X108523000Y-106729000D02*
X108523000Y-106450000D01*
X108523000Y-104370000D02*
X108523000Y-104091000D01*
X108483000Y-106661000D02*
X108483000Y-106450000D01*
X108483000Y-104370000D02*
X108483000Y-104159000D01*
X108443000Y-106588000D02*
X108443000Y-104232000D01*
X108403000Y-106508000D02*
X108403000Y-104312000D01*
X108363000Y-106421000D02*
X108363000Y-104399000D01*
X108323000Y-106325000D02*
X108323000Y-104495000D01*
X108283000Y-106215000D02*
X108283000Y-104605000D01*
X108243000Y-106087000D02*
X108243000Y-104733000D01*
X108203000Y-105928000D02*
X108203000Y-104892000D01*
X108163000Y-105694000D02*
X108163000Y-105126000D01*
X113568775Y-106885000D02*
X113068775Y-106885000D01*
X113318775Y-107135000D02*
X113318775Y-106635000D01*
D10*
%TO.C,P1*%
X195808000Y-115596000D02*
X197358000Y-115596000D01*
X198628000Y-112776000D02*
X196088000Y-112776000D01*
X198628000Y-115316000D02*
X198628000Y-112776000D01*
X195808000Y-114046000D02*
X195808000Y-115596000D01*
X201168000Y-115316000D02*
X198628000Y-115316000D01*
X201168000Y-69596000D02*
X196088000Y-69596000D01*
X196088000Y-69596000D02*
X196088000Y-112776000D01*
X201168000Y-115316000D02*
X201168000Y-69596000D01*
%TO.C,P2*%
X129768000Y-117576000D02*
X129768000Y-120676000D01*
X131318000Y-117576000D02*
X129768000Y-117576000D01*
X132588000Y-120396000D02*
X132588000Y-117856000D01*
X129768000Y-120676000D02*
X131318000Y-120676000D01*
X150368000Y-117856000D02*
X132588000Y-117856000D01*
X150368000Y-120396000D02*
X150368000Y-117856000D01*
X132588000Y-120396000D02*
X150368000Y-120396000D01*
%TO.C,P3*%
X152628000Y-117576000D02*
X152628000Y-120676000D01*
X154178000Y-117576000D02*
X152628000Y-117576000D01*
X155448000Y-120396000D02*
X155448000Y-117856000D01*
X152628000Y-120676000D02*
X154178000Y-120676000D01*
X173228000Y-117856000D02*
X155448000Y-117856000D01*
X173228000Y-120396000D02*
X173228000Y-117856000D01*
X155448000Y-120396000D02*
X173228000Y-120396000D01*
%TO.C,P4*%
X175488000Y-117576000D02*
X175488000Y-120676000D01*
X177038000Y-117576000D02*
X175488000Y-117576000D01*
X178308000Y-120396000D02*
X178308000Y-117856000D01*
X175488000Y-120676000D02*
X177038000Y-120676000D01*
X196088000Y-117856000D02*
X178308000Y-117856000D01*
X196088000Y-120396000D02*
X196088000Y-117856000D01*
X178308000Y-120396000D02*
X196088000Y-120396000D01*
%TO.C,P5*%
X120624000Y-69316000D02*
X120624000Y-72416000D01*
X122174000Y-69316000D02*
X120624000Y-69316000D01*
X123444000Y-72136000D02*
X123444000Y-69596000D01*
X120624000Y-72416000D02*
X122174000Y-72416000D01*
X146304000Y-69596000D02*
X123444000Y-69596000D01*
X146304000Y-72136000D02*
X146304000Y-69596000D01*
X123444000Y-72136000D02*
X146304000Y-72136000D01*
%TO.C,P6*%
X147548000Y-69316000D02*
X147548000Y-72416000D01*
X149098000Y-69316000D02*
X147548000Y-69316000D01*
X150368000Y-72136000D02*
X150368000Y-69596000D01*
X147548000Y-72416000D02*
X149098000Y-72416000D01*
X168148000Y-69596000D02*
X150368000Y-69596000D01*
X168148000Y-72136000D02*
X168148000Y-69596000D01*
X150368000Y-72136000D02*
X168148000Y-72136000D01*
%TO.C,P7*%
X170408000Y-69316000D02*
X170408000Y-72416000D01*
X171958000Y-69316000D02*
X170408000Y-69316000D01*
X173228000Y-72136000D02*
X173228000Y-69596000D01*
X170408000Y-72416000D02*
X171958000Y-72416000D01*
X191008000Y-69596000D02*
X173228000Y-69596000D01*
X191008000Y-72136000D02*
X191008000Y-69596000D01*
X173228000Y-72136000D02*
X191008000Y-72136000D01*
%TO.C,MOD1*%
X129587580Y-85954133D02*
X128587580Y-85954133D01*
X129301866Y-85620800D01*
X128587580Y-85287466D01*
X129587580Y-85287466D01*
X128587580Y-84620800D02*
X128587580Y-84430323D01*
X128635200Y-84335085D01*
X128730438Y-84239847D01*
X128920914Y-84192228D01*
X129254247Y-84192228D01*
X129444723Y-84239847D01*
X129539961Y-84335085D01*
X129587580Y-84430323D01*
X129587580Y-84620800D01*
X129539961Y-84716038D01*
X129444723Y-84811276D01*
X129254247Y-84858895D01*
X128920914Y-84858895D01*
X128730438Y-84811276D01*
X128635200Y-84716038D01*
X128587580Y-84620800D01*
X129587580Y-83763657D02*
X128587580Y-83763657D01*
X128587580Y-83525561D01*
X128635200Y-83382704D01*
X128730438Y-83287466D01*
X128825676Y-83239847D01*
X129016152Y-83192228D01*
X129159009Y-83192228D01*
X129349485Y-83239847D01*
X129444723Y-83287466D01*
X129539961Y-83382704D01*
X129587580Y-83525561D01*
X129587580Y-83763657D01*
X129587580Y-82239847D02*
X129587580Y-82811276D01*
X129587580Y-82525561D02*
X128587580Y-82525561D01*
X128730438Y-82620800D01*
X128825676Y-82716038D01*
X128873295Y-82811276D01*
X138968533Y-77977942D02*
X138920914Y-78025561D01*
X138778057Y-78073180D01*
X138682819Y-78073180D01*
X138539961Y-78025561D01*
X138444723Y-77930323D01*
X138397104Y-77835085D01*
X138349485Y-77644609D01*
X138349485Y-77501752D01*
X138397104Y-77311276D01*
X138444723Y-77216038D01*
X138539961Y-77120800D01*
X138682819Y-77073180D01*
X138778057Y-77073180D01*
X138920914Y-77120800D01*
X138968533Y-77168419D01*
X139349485Y-78025561D02*
X139492342Y-78073180D01*
X139730438Y-78073180D01*
X139825676Y-78025561D01*
X139873295Y-77977942D01*
X139920914Y-77882704D01*
X139920914Y-77787466D01*
X139873295Y-77692228D01*
X139825676Y-77644609D01*
X139730438Y-77596990D01*
X139539961Y-77549371D01*
X139444723Y-77501752D01*
X139397104Y-77454133D01*
X139349485Y-77358895D01*
X139349485Y-77263657D01*
X139397104Y-77168419D01*
X139444723Y-77120800D01*
X139539961Y-77073180D01*
X139778057Y-77073180D01*
X139920914Y-77120800D01*
X137349485Y-80775561D02*
X137492342Y-80823180D01*
X137730438Y-80823180D01*
X137825676Y-80775561D01*
X137873295Y-80727942D01*
X137920914Y-80632704D01*
X137920914Y-80537466D01*
X137873295Y-80442228D01*
X137825676Y-80394609D01*
X137730438Y-80346990D01*
X137539961Y-80299371D01*
X137444723Y-80251752D01*
X137397104Y-80204133D01*
X137349485Y-80108895D01*
X137349485Y-80013657D01*
X137397104Y-79918419D01*
X137444723Y-79870800D01*
X137539961Y-79823180D01*
X137778057Y-79823180D01*
X137920914Y-79870800D01*
X138920914Y-80727942D02*
X138873295Y-80775561D01*
X138730438Y-80823180D01*
X138635200Y-80823180D01*
X138492342Y-80775561D01*
X138397104Y-80680323D01*
X138349485Y-80585085D01*
X138301866Y-80394609D01*
X138301866Y-80251752D01*
X138349485Y-80061276D01*
X138397104Y-79966038D01*
X138492342Y-79870800D01*
X138635200Y-79823180D01*
X138730438Y-79823180D01*
X138873295Y-79870800D01*
X138920914Y-79918419D01*
X139349485Y-80823180D02*
X139349485Y-79823180D01*
X139920914Y-80823180D02*
X139492342Y-80251752D01*
X139920914Y-79823180D02*
X139349485Y-80394609D01*
X136813771Y-83323180D02*
X136813771Y-82323180D01*
X137147104Y-83037466D01*
X137480438Y-82323180D01*
X137480438Y-83323180D01*
X138147104Y-82323180D02*
X138337580Y-82323180D01*
X138432819Y-82370800D01*
X138528057Y-82466038D01*
X138575676Y-82656514D01*
X138575676Y-82989847D01*
X138528057Y-83180323D01*
X138432819Y-83275561D01*
X138337580Y-83323180D01*
X138147104Y-83323180D01*
X138051866Y-83275561D01*
X137956628Y-83180323D01*
X137909009Y-82989847D01*
X137909009Y-82656514D01*
X137956628Y-82466038D01*
X138051866Y-82370800D01*
X138147104Y-82323180D01*
X138956628Y-83275561D02*
X139099485Y-83323180D01*
X139337580Y-83323180D01*
X139432819Y-83275561D01*
X139480438Y-83227942D01*
X139528057Y-83132704D01*
X139528057Y-83037466D01*
X139480438Y-82942228D01*
X139432819Y-82894609D01*
X139337580Y-82846990D01*
X139147104Y-82799371D01*
X139051866Y-82751752D01*
X139004247Y-82704133D01*
X138956628Y-82608895D01*
X138956628Y-82513657D01*
X139004247Y-82418419D01*
X139051866Y-82370800D01*
X139147104Y-82323180D01*
X139385200Y-82323180D01*
X139528057Y-82370800D01*
X139956628Y-83323180D02*
X139956628Y-82323180D01*
X136813771Y-85823180D02*
X136813771Y-84823180D01*
X137147104Y-85537466D01*
X137480438Y-84823180D01*
X137480438Y-85823180D01*
X137956628Y-85823180D02*
X137956628Y-84823180D01*
X138385200Y-85775561D02*
X138528057Y-85823180D01*
X138766152Y-85823180D01*
X138861390Y-85775561D01*
X138909009Y-85727942D01*
X138956628Y-85632704D01*
X138956628Y-85537466D01*
X138909009Y-85442228D01*
X138861390Y-85394609D01*
X138766152Y-85346990D01*
X138575676Y-85299371D01*
X138480438Y-85251752D01*
X138432819Y-85204133D01*
X138385200Y-85108895D01*
X138385200Y-85013657D01*
X138432819Y-84918419D01*
X138480438Y-84870800D01*
X138575676Y-84823180D01*
X138813771Y-84823180D01*
X138956628Y-84870800D01*
X139575676Y-84823180D02*
X139766152Y-84823180D01*
X139861390Y-84870800D01*
X139956628Y-84966038D01*
X140004247Y-85156514D01*
X140004247Y-85489847D01*
X139956628Y-85680323D01*
X139861390Y-85775561D01*
X139766152Y-85823180D01*
X139575676Y-85823180D01*
X139480438Y-85775561D01*
X139385200Y-85680323D01*
X139337580Y-85489847D01*
X139337580Y-85156514D01*
X139385200Y-84966038D01*
X139480438Y-84870800D01*
X139575676Y-84823180D01*
X137301866Y-87323180D02*
X137635200Y-88323180D01*
X137968533Y-87323180D01*
X138873295Y-88227942D02*
X138825676Y-88275561D01*
X138682819Y-88323180D01*
X138587580Y-88323180D01*
X138444723Y-88275561D01*
X138349485Y-88180323D01*
X138301866Y-88085085D01*
X138254247Y-87894609D01*
X138254247Y-87751752D01*
X138301866Y-87561276D01*
X138349485Y-87466038D01*
X138444723Y-87370800D01*
X138587580Y-87323180D01*
X138682819Y-87323180D01*
X138825676Y-87370800D01*
X138873295Y-87418419D01*
X139873295Y-88227942D02*
X139825676Y-88275561D01*
X139682819Y-88323180D01*
X139587580Y-88323180D01*
X139444723Y-88275561D01*
X139349485Y-88180323D01*
X139301866Y-88085085D01*
X139254247Y-87894609D01*
X139254247Y-87751752D01*
X139301866Y-87561276D01*
X139349485Y-87466038D01*
X139444723Y-87370800D01*
X139587580Y-87323180D01*
X139682819Y-87323180D01*
X139825676Y-87370800D01*
X139873295Y-87418419D01*
X137873295Y-89870800D02*
X137778057Y-89823180D01*
X137635200Y-89823180D01*
X137492342Y-89870800D01*
X137397104Y-89966038D01*
X137349485Y-90061276D01*
X137301866Y-90251752D01*
X137301866Y-90394609D01*
X137349485Y-90585085D01*
X137397104Y-90680323D01*
X137492342Y-90775561D01*
X137635200Y-90823180D01*
X137730438Y-90823180D01*
X137873295Y-90775561D01*
X137920914Y-90727942D01*
X137920914Y-90394609D01*
X137730438Y-90394609D01*
X138349485Y-90823180D02*
X138349485Y-89823180D01*
X138920914Y-90823180D01*
X138920914Y-89823180D01*
X139397104Y-90823180D02*
X139397104Y-89823180D01*
X139635200Y-89823180D01*
X139778057Y-89870800D01*
X139873295Y-89966038D01*
X139920914Y-90061276D01*
X139968533Y-90251752D01*
X139968533Y-90394609D01*
X139920914Y-90585085D01*
X139873295Y-90680323D01*
X139778057Y-90775561D01*
X139635200Y-90823180D01*
X139397104Y-90823180D01*
%TO.C,Q7*%
X194214761Y-79287619D02*
X194119523Y-79240000D01*
X194024285Y-79144761D01*
X193881428Y-79001904D01*
X193786190Y-78954285D01*
X193690952Y-78954285D01*
X193738571Y-79192380D02*
X193643333Y-79144761D01*
X193548095Y-79049523D01*
X193500476Y-78859047D01*
X193500476Y-78525714D01*
X193548095Y-78335238D01*
X193643333Y-78240000D01*
X193738571Y-78192380D01*
X193929047Y-78192380D01*
X194024285Y-78240000D01*
X194119523Y-78335238D01*
X194167142Y-78525714D01*
X194167142Y-78859047D01*
X194119523Y-79049523D01*
X194024285Y-79144761D01*
X193929047Y-79192380D01*
X193738571Y-79192380D01*
X194500476Y-78192380D02*
X195167142Y-78192380D01*
X194738571Y-79192380D01*
%TO.C,Q6*%
X194214761Y-84367619D02*
X194119523Y-84320000D01*
X194024285Y-84224761D01*
X193881428Y-84081904D01*
X193786190Y-84034285D01*
X193690952Y-84034285D01*
X193738571Y-84272380D02*
X193643333Y-84224761D01*
X193548095Y-84129523D01*
X193500476Y-83939047D01*
X193500476Y-83605714D01*
X193548095Y-83415238D01*
X193643333Y-83320000D01*
X193738571Y-83272380D01*
X193929047Y-83272380D01*
X194024285Y-83320000D01*
X194119523Y-83415238D01*
X194167142Y-83605714D01*
X194167142Y-83939047D01*
X194119523Y-84129523D01*
X194024285Y-84224761D01*
X193929047Y-84272380D01*
X193738571Y-84272380D01*
X195024285Y-83272380D02*
X194833809Y-83272380D01*
X194738571Y-83320000D01*
X194690952Y-83367619D01*
X194595714Y-83510476D01*
X194548095Y-83700952D01*
X194548095Y-84081904D01*
X194595714Y-84177142D01*
X194643333Y-84224761D01*
X194738571Y-84272380D01*
X194929047Y-84272380D01*
X195024285Y-84224761D01*
X195071904Y-84177142D01*
X195119523Y-84081904D01*
X195119523Y-83843809D01*
X195071904Y-83748571D01*
X195024285Y-83700952D01*
X194929047Y-83653333D01*
X194738571Y-83653333D01*
X194643333Y-83700952D01*
X194595714Y-83748571D01*
X194548095Y-83843809D01*
%TO.C,Q5*%
X194214761Y-94527619D02*
X194119523Y-94480000D01*
X194024285Y-94384761D01*
X193881428Y-94241904D01*
X193786190Y-94194285D01*
X193690952Y-94194285D01*
X193738571Y-94432380D02*
X193643333Y-94384761D01*
X193548095Y-94289523D01*
X193500476Y-94099047D01*
X193500476Y-93765714D01*
X193548095Y-93575238D01*
X193643333Y-93480000D01*
X193738571Y-93432380D01*
X193929047Y-93432380D01*
X194024285Y-93480000D01*
X194119523Y-93575238D01*
X194167142Y-93765714D01*
X194167142Y-94099047D01*
X194119523Y-94289523D01*
X194024285Y-94384761D01*
X193929047Y-94432380D01*
X193738571Y-94432380D01*
X195071904Y-93432380D02*
X194595714Y-93432380D01*
X194548095Y-93908571D01*
X194595714Y-93860952D01*
X194690952Y-93813333D01*
X194929047Y-93813333D01*
X195024285Y-93860952D01*
X195071904Y-93908571D01*
X195119523Y-94003809D01*
X195119523Y-94241904D01*
X195071904Y-94337142D01*
X195024285Y-94384761D01*
X194929047Y-94432380D01*
X194690952Y-94432380D01*
X194595714Y-94384761D01*
X194548095Y-94337142D01*
%TO.C,Q4*%
X194214761Y-89447619D02*
X194119523Y-89400000D01*
X194024285Y-89304761D01*
X193881428Y-89161904D01*
X193786190Y-89114285D01*
X193690952Y-89114285D01*
X193738571Y-89352380D02*
X193643333Y-89304761D01*
X193548095Y-89209523D01*
X193500476Y-89019047D01*
X193500476Y-88685714D01*
X193548095Y-88495238D01*
X193643333Y-88400000D01*
X193738571Y-88352380D01*
X193929047Y-88352380D01*
X194024285Y-88400000D01*
X194119523Y-88495238D01*
X194167142Y-88685714D01*
X194167142Y-89019047D01*
X194119523Y-89209523D01*
X194024285Y-89304761D01*
X193929047Y-89352380D01*
X193738571Y-89352380D01*
X195024285Y-88685714D02*
X195024285Y-89352380D01*
X194786190Y-88304761D02*
X194548095Y-89019047D01*
X195167142Y-89019047D01*
%TO.C,Q3*%
X194214761Y-99607619D02*
X194119523Y-99560000D01*
X194024285Y-99464761D01*
X193881428Y-99321904D01*
X193786190Y-99274285D01*
X193690952Y-99274285D01*
X193738571Y-99512380D02*
X193643333Y-99464761D01*
X193548095Y-99369523D01*
X193500476Y-99179047D01*
X193500476Y-98845714D01*
X193548095Y-98655238D01*
X193643333Y-98560000D01*
X193738571Y-98512380D01*
X193929047Y-98512380D01*
X194024285Y-98560000D01*
X194119523Y-98655238D01*
X194167142Y-98845714D01*
X194167142Y-99179047D01*
X194119523Y-99369523D01*
X194024285Y-99464761D01*
X193929047Y-99512380D01*
X193738571Y-99512380D01*
X194500476Y-98512380D02*
X195119523Y-98512380D01*
X194786190Y-98893333D01*
X194929047Y-98893333D01*
X195024285Y-98940952D01*
X195071904Y-98988571D01*
X195119523Y-99083809D01*
X195119523Y-99321904D01*
X195071904Y-99417142D01*
X195024285Y-99464761D01*
X194929047Y-99512380D01*
X194643333Y-99512380D01*
X194548095Y-99464761D01*
X194500476Y-99417142D01*
%TO.C,Q2*%
X194214761Y-109767619D02*
X194119523Y-109720000D01*
X194024285Y-109624761D01*
X193881428Y-109481904D01*
X193786190Y-109434285D01*
X193690952Y-109434285D01*
X193738571Y-109672380D02*
X193643333Y-109624761D01*
X193548095Y-109529523D01*
X193500476Y-109339047D01*
X193500476Y-109005714D01*
X193548095Y-108815238D01*
X193643333Y-108720000D01*
X193738571Y-108672380D01*
X193929047Y-108672380D01*
X194024285Y-108720000D01*
X194119523Y-108815238D01*
X194167142Y-109005714D01*
X194167142Y-109339047D01*
X194119523Y-109529523D01*
X194024285Y-109624761D01*
X193929047Y-109672380D01*
X193738571Y-109672380D01*
X194548095Y-108767619D02*
X194595714Y-108720000D01*
X194690952Y-108672380D01*
X194929047Y-108672380D01*
X195024285Y-108720000D01*
X195071904Y-108767619D01*
X195119523Y-108862857D01*
X195119523Y-108958095D01*
X195071904Y-109100952D01*
X194500476Y-109672380D01*
X195119523Y-109672380D01*
%TO.C,Q1*%
X194214761Y-104687619D02*
X194119523Y-104640000D01*
X194024285Y-104544761D01*
X193881428Y-104401904D01*
X193786190Y-104354285D01*
X193690952Y-104354285D01*
X193738571Y-104592380D02*
X193643333Y-104544761D01*
X193548095Y-104449523D01*
X193500476Y-104259047D01*
X193500476Y-103925714D01*
X193548095Y-103735238D01*
X193643333Y-103640000D01*
X193738571Y-103592380D01*
X193929047Y-103592380D01*
X194024285Y-103640000D01*
X194119523Y-103735238D01*
X194167142Y-103925714D01*
X194167142Y-104259047D01*
X194119523Y-104449523D01*
X194024285Y-104544761D01*
X193929047Y-104592380D01*
X193738571Y-104592380D01*
X195119523Y-104592380D02*
X194548095Y-104592380D01*
X194833809Y-104592380D02*
X194833809Y-103592380D01*
X194738571Y-103735238D01*
X194643333Y-103830476D01*
X194548095Y-103878095D01*
%TO.C,DS1*%
X110545714Y-70810380D02*
X110545714Y-69810380D01*
X110783809Y-69810380D01*
X110926666Y-69858000D01*
X111021904Y-69953238D01*
X111069523Y-70048476D01*
X111117142Y-70238952D01*
X111117142Y-70381809D01*
X111069523Y-70572285D01*
X111021904Y-70667523D01*
X110926666Y-70762761D01*
X110783809Y-70810380D01*
X110545714Y-70810380D01*
X111498095Y-70762761D02*
X111640952Y-70810380D01*
X111879047Y-70810380D01*
X111974285Y-70762761D01*
X112021904Y-70715142D01*
X112069523Y-70619904D01*
X112069523Y-70524666D01*
X112021904Y-70429428D01*
X111974285Y-70381809D01*
X111879047Y-70334190D01*
X111688571Y-70286571D01*
X111593333Y-70238952D01*
X111545714Y-70191333D01*
X111498095Y-70096095D01*
X111498095Y-70000857D01*
X111545714Y-69905619D01*
X111593333Y-69858000D01*
X111688571Y-69810380D01*
X111926666Y-69810380D01*
X112069523Y-69858000D01*
X113021904Y-70810380D02*
X112450476Y-70810380D01*
X112736190Y-70810380D02*
X112736190Y-69810380D01*
X112640952Y-69953238D01*
X112545714Y-70048476D01*
X112450476Y-70096095D01*
%TO.C,R23*%
X182062380Y-88780857D02*
X181586190Y-89114190D01*
X182062380Y-89352285D02*
X181062380Y-89352285D01*
X181062380Y-88971333D01*
X181110000Y-88876095D01*
X181157619Y-88828476D01*
X181252857Y-88780857D01*
X181395714Y-88780857D01*
X181490952Y-88828476D01*
X181538571Y-88876095D01*
X181586190Y-88971333D01*
X181586190Y-89352285D01*
X181157619Y-88399904D02*
X181110000Y-88352285D01*
X181062380Y-88257047D01*
X181062380Y-88018952D01*
X181110000Y-87923714D01*
X181157619Y-87876095D01*
X181252857Y-87828476D01*
X181348095Y-87828476D01*
X181490952Y-87876095D01*
X182062380Y-88447523D01*
X182062380Y-87828476D01*
X181062380Y-87495142D02*
X181062380Y-86876095D01*
X181443333Y-87209428D01*
X181443333Y-87066571D01*
X181490952Y-86971333D01*
X181538571Y-86923714D01*
X181633809Y-86876095D01*
X181871904Y-86876095D01*
X181967142Y-86923714D01*
X182014761Y-86971333D01*
X182062380Y-87066571D01*
X182062380Y-87352285D01*
X182014761Y-87447523D01*
X181967142Y-87495142D01*
X184432380Y-89304666D02*
X184432380Y-89876095D01*
X184432380Y-89590380D02*
X183432380Y-89590380D01*
X183575238Y-89685619D01*
X183670476Y-89780857D01*
X183718095Y-89876095D01*
X183860952Y-88733238D02*
X183813333Y-88828476D01*
X183765714Y-88876095D01*
X183670476Y-88923714D01*
X183622857Y-88923714D01*
X183527619Y-88876095D01*
X183480000Y-88828476D01*
X183432380Y-88733238D01*
X183432380Y-88542761D01*
X183480000Y-88447523D01*
X183527619Y-88399904D01*
X183622857Y-88352285D01*
X183670476Y-88352285D01*
X183765714Y-88399904D01*
X183813333Y-88447523D01*
X183860952Y-88542761D01*
X183860952Y-88733238D01*
X183908571Y-88828476D01*
X183956190Y-88876095D01*
X184051428Y-88923714D01*
X184241904Y-88923714D01*
X184337142Y-88876095D01*
X184384761Y-88828476D01*
X184432380Y-88733238D01*
X184432380Y-88542761D01*
X184384761Y-88447523D01*
X184337142Y-88399904D01*
X184241904Y-88352285D01*
X184051428Y-88352285D01*
X183956190Y-88399904D01*
X183908571Y-88447523D01*
X183860952Y-88542761D01*
X183432380Y-87733238D02*
X183432380Y-87638000D01*
X183480000Y-87542761D01*
X183527619Y-87495142D01*
X183622857Y-87447523D01*
X183813333Y-87399904D01*
X184051428Y-87399904D01*
X184241904Y-87447523D01*
X184337142Y-87495142D01*
X184384761Y-87542761D01*
X184432380Y-87638000D01*
X184432380Y-87733238D01*
X184384761Y-87828476D01*
X184337142Y-87876095D01*
X184241904Y-87923714D01*
X184051428Y-87971333D01*
X183813333Y-87971333D01*
X183622857Y-87923714D01*
X183527619Y-87876095D01*
X183480000Y-87828476D01*
X183432380Y-87733238D01*
X184432380Y-86399904D02*
X183956190Y-86733238D01*
X184432380Y-86971333D02*
X183432380Y-86971333D01*
X183432380Y-86590380D01*
X183480000Y-86495142D01*
X183527619Y-86447523D01*
X183622857Y-86399904D01*
X183765714Y-86399904D01*
X183860952Y-86447523D01*
X183908571Y-86495142D01*
X183956190Y-86590380D01*
X183956190Y-86971333D01*
%TO.C,R20*%
X179014380Y-88780857D02*
X178538190Y-89114190D01*
X179014380Y-89352285D02*
X178014380Y-89352285D01*
X178014380Y-88971333D01*
X178062000Y-88876095D01*
X178109619Y-88828476D01*
X178204857Y-88780857D01*
X178347714Y-88780857D01*
X178442952Y-88828476D01*
X178490571Y-88876095D01*
X178538190Y-88971333D01*
X178538190Y-89352285D01*
X178109619Y-88399904D02*
X178062000Y-88352285D01*
X178014380Y-88257047D01*
X178014380Y-88018952D01*
X178062000Y-87923714D01*
X178109619Y-87876095D01*
X178204857Y-87828476D01*
X178300095Y-87828476D01*
X178442952Y-87876095D01*
X179014380Y-88447523D01*
X179014380Y-87828476D01*
X178014380Y-87209428D02*
X178014380Y-87114190D01*
X178062000Y-87018952D01*
X178109619Y-86971333D01*
X178204857Y-86923714D01*
X178395333Y-86876095D01*
X178633428Y-86876095D01*
X178823904Y-86923714D01*
X178919142Y-86971333D01*
X178966761Y-87018952D01*
X179014380Y-87114190D01*
X179014380Y-87209428D01*
X178966761Y-87304666D01*
X178919142Y-87352285D01*
X178823904Y-87399904D01*
X178633428Y-87447523D01*
X178395333Y-87447523D01*
X178204857Y-87399904D01*
X178109619Y-87352285D01*
X178062000Y-87304666D01*
X178014380Y-87209428D01*
%TO.C,R18*%
X175966380Y-88780857D02*
X175490190Y-89114190D01*
X175966380Y-89352285D02*
X174966380Y-89352285D01*
X174966380Y-88971333D01*
X175014000Y-88876095D01*
X175061619Y-88828476D01*
X175156857Y-88780857D01*
X175299714Y-88780857D01*
X175394952Y-88828476D01*
X175442571Y-88876095D01*
X175490190Y-88971333D01*
X175490190Y-89352285D01*
X175966380Y-87828476D02*
X175966380Y-88399904D01*
X175966380Y-88114190D02*
X174966380Y-88114190D01*
X175109238Y-88209428D01*
X175204476Y-88304666D01*
X175252095Y-88399904D01*
X175394952Y-87257047D02*
X175347333Y-87352285D01*
X175299714Y-87399904D01*
X175204476Y-87447523D01*
X175156857Y-87447523D01*
X175061619Y-87399904D01*
X175014000Y-87352285D01*
X174966380Y-87257047D01*
X174966380Y-87066571D01*
X175014000Y-86971333D01*
X175061619Y-86923714D01*
X175156857Y-86876095D01*
X175204476Y-86876095D01*
X175299714Y-86923714D01*
X175347333Y-86971333D01*
X175394952Y-87066571D01*
X175394952Y-87257047D01*
X175442571Y-87352285D01*
X175490190Y-87399904D01*
X175585428Y-87447523D01*
X175775904Y-87447523D01*
X175871142Y-87399904D01*
X175918761Y-87352285D01*
X175966380Y-87257047D01*
X175966380Y-87066571D01*
X175918761Y-86971333D01*
X175871142Y-86923714D01*
X175775904Y-86876095D01*
X175585428Y-86876095D01*
X175490190Y-86923714D01*
X175442571Y-86971333D01*
X175394952Y-87066571D01*
%TO.C,R16*%
X172918380Y-88780857D02*
X172442190Y-89114190D01*
X172918380Y-89352285D02*
X171918380Y-89352285D01*
X171918380Y-88971333D01*
X171966000Y-88876095D01*
X172013619Y-88828476D01*
X172108857Y-88780857D01*
X172251714Y-88780857D01*
X172346952Y-88828476D01*
X172394571Y-88876095D01*
X172442190Y-88971333D01*
X172442190Y-89352285D01*
X172918380Y-87828476D02*
X172918380Y-88399904D01*
X172918380Y-88114190D02*
X171918380Y-88114190D01*
X172061238Y-88209428D01*
X172156476Y-88304666D01*
X172204095Y-88399904D01*
X171918380Y-86971333D02*
X171918380Y-87161809D01*
X171966000Y-87257047D01*
X172013619Y-87304666D01*
X172156476Y-87399904D01*
X172346952Y-87447523D01*
X172727904Y-87447523D01*
X172823142Y-87399904D01*
X172870761Y-87352285D01*
X172918380Y-87257047D01*
X172918380Y-87066571D01*
X172870761Y-86971333D01*
X172823142Y-86923714D01*
X172727904Y-86876095D01*
X172489809Y-86876095D01*
X172394571Y-86923714D01*
X172346952Y-86971333D01*
X172299333Y-87066571D01*
X172299333Y-87257047D01*
X172346952Y-87352285D01*
X172394571Y-87399904D01*
X172489809Y-87447523D01*
%TO.C,R14*%
X169870380Y-88780857D02*
X169394190Y-89114190D01*
X169870380Y-89352285D02*
X168870380Y-89352285D01*
X168870380Y-88971333D01*
X168918000Y-88876095D01*
X168965619Y-88828476D01*
X169060857Y-88780857D01*
X169203714Y-88780857D01*
X169298952Y-88828476D01*
X169346571Y-88876095D01*
X169394190Y-88971333D01*
X169394190Y-89352285D01*
X169870380Y-87828476D02*
X169870380Y-88399904D01*
X169870380Y-88114190D02*
X168870380Y-88114190D01*
X169013238Y-88209428D01*
X169108476Y-88304666D01*
X169156095Y-88399904D01*
X169203714Y-86971333D02*
X169870380Y-86971333D01*
X168822761Y-87209428D02*
X169537047Y-87447523D01*
X169537047Y-86828476D01*
%TO.C,R12*%
X166822380Y-88780857D02*
X166346190Y-89114190D01*
X166822380Y-89352285D02*
X165822380Y-89352285D01*
X165822380Y-88971333D01*
X165870000Y-88876095D01*
X165917619Y-88828476D01*
X166012857Y-88780857D01*
X166155714Y-88780857D01*
X166250952Y-88828476D01*
X166298571Y-88876095D01*
X166346190Y-88971333D01*
X166346190Y-89352285D01*
X166822380Y-87828476D02*
X166822380Y-88399904D01*
X166822380Y-88114190D02*
X165822380Y-88114190D01*
X165965238Y-88209428D01*
X166060476Y-88304666D01*
X166108095Y-88399904D01*
X165917619Y-87447523D02*
X165870000Y-87399904D01*
X165822380Y-87304666D01*
X165822380Y-87066571D01*
X165870000Y-86971333D01*
X165917619Y-86923714D01*
X166012857Y-86876095D01*
X166108095Y-86876095D01*
X166250952Y-86923714D01*
X166822380Y-87495142D01*
X166822380Y-86876095D01*
%TO.C,R10*%
X163774380Y-88780857D02*
X163298190Y-89114190D01*
X163774380Y-89352285D02*
X162774380Y-89352285D01*
X162774380Y-88971333D01*
X162822000Y-88876095D01*
X162869619Y-88828476D01*
X162964857Y-88780857D01*
X163107714Y-88780857D01*
X163202952Y-88828476D01*
X163250571Y-88876095D01*
X163298190Y-88971333D01*
X163298190Y-89352285D01*
X163774380Y-87828476D02*
X163774380Y-88399904D01*
X163774380Y-88114190D02*
X162774380Y-88114190D01*
X162917238Y-88209428D01*
X163012476Y-88304666D01*
X163060095Y-88399904D01*
X162774380Y-87209428D02*
X162774380Y-87114190D01*
X162822000Y-87018952D01*
X162869619Y-86971333D01*
X162964857Y-86923714D01*
X163155333Y-86876095D01*
X163393428Y-86876095D01*
X163583904Y-86923714D01*
X163679142Y-86971333D01*
X163726761Y-87018952D01*
X163774380Y-87114190D01*
X163774380Y-87209428D01*
X163726761Y-87304666D01*
X163679142Y-87352285D01*
X163583904Y-87399904D01*
X163393428Y-87447523D01*
X163155333Y-87447523D01*
X162964857Y-87399904D01*
X162869619Y-87352285D01*
X162822000Y-87304666D01*
X162774380Y-87209428D01*
%TO.C,R8*%
X160726380Y-88304666D02*
X160250190Y-88638000D01*
X160726380Y-88876095D02*
X159726380Y-88876095D01*
X159726380Y-88495142D01*
X159774000Y-88399904D01*
X159821619Y-88352285D01*
X159916857Y-88304666D01*
X160059714Y-88304666D01*
X160154952Y-88352285D01*
X160202571Y-88399904D01*
X160250190Y-88495142D01*
X160250190Y-88876095D01*
X160154952Y-87733238D02*
X160107333Y-87828476D01*
X160059714Y-87876095D01*
X159964476Y-87923714D01*
X159916857Y-87923714D01*
X159821619Y-87876095D01*
X159774000Y-87828476D01*
X159726380Y-87733238D01*
X159726380Y-87542761D01*
X159774000Y-87447523D01*
X159821619Y-87399904D01*
X159916857Y-87352285D01*
X159964476Y-87352285D01*
X160059714Y-87399904D01*
X160107333Y-87447523D01*
X160154952Y-87542761D01*
X160154952Y-87733238D01*
X160202571Y-87828476D01*
X160250190Y-87876095D01*
X160345428Y-87923714D01*
X160535904Y-87923714D01*
X160631142Y-87876095D01*
X160678761Y-87828476D01*
X160726380Y-87733238D01*
X160726380Y-87542761D01*
X160678761Y-87447523D01*
X160631142Y-87399904D01*
X160535904Y-87352285D01*
X160345428Y-87352285D01*
X160250190Y-87399904D01*
X160202571Y-87447523D01*
X160154952Y-87542761D01*
%TO.C,R6*%
X157678380Y-88304666D02*
X157202190Y-88638000D01*
X157678380Y-88876095D02*
X156678380Y-88876095D01*
X156678380Y-88495142D01*
X156726000Y-88399904D01*
X156773619Y-88352285D01*
X156868857Y-88304666D01*
X157011714Y-88304666D01*
X157106952Y-88352285D01*
X157154571Y-88399904D01*
X157202190Y-88495142D01*
X157202190Y-88876095D01*
X156678380Y-87447523D02*
X156678380Y-87638000D01*
X156726000Y-87733238D01*
X156773619Y-87780857D01*
X156916476Y-87876095D01*
X157106952Y-87923714D01*
X157487904Y-87923714D01*
X157583142Y-87876095D01*
X157630761Y-87828476D01*
X157678380Y-87733238D01*
X157678380Y-87542761D01*
X157630761Y-87447523D01*
X157583142Y-87399904D01*
X157487904Y-87352285D01*
X157249809Y-87352285D01*
X157154571Y-87399904D01*
X157106952Y-87447523D01*
X157059333Y-87542761D01*
X157059333Y-87733238D01*
X157106952Y-87828476D01*
X157154571Y-87876095D01*
X157249809Y-87923714D01*
%TO.C,R4*%
X154630380Y-88304666D02*
X154154190Y-88638000D01*
X154630380Y-88876095D02*
X153630380Y-88876095D01*
X153630380Y-88495142D01*
X153678000Y-88399904D01*
X153725619Y-88352285D01*
X153820857Y-88304666D01*
X153963714Y-88304666D01*
X154058952Y-88352285D01*
X154106571Y-88399904D01*
X154154190Y-88495142D01*
X154154190Y-88876095D01*
X153963714Y-87447523D02*
X154630380Y-87447523D01*
X153582761Y-87685619D02*
X154297047Y-87923714D01*
X154297047Y-87304666D01*
%TO.C,R2*%
X151582380Y-88304666D02*
X151106190Y-88638000D01*
X151582380Y-88876095D02*
X150582380Y-88876095D01*
X150582380Y-88495142D01*
X150630000Y-88399904D01*
X150677619Y-88352285D01*
X150772857Y-88304666D01*
X150915714Y-88304666D01*
X151010952Y-88352285D01*
X151058571Y-88399904D01*
X151106190Y-88495142D01*
X151106190Y-88876095D01*
X150677619Y-87923714D02*
X150630000Y-87876095D01*
X150582380Y-87780857D01*
X150582380Y-87542761D01*
X150630000Y-87447523D01*
X150677619Y-87399904D01*
X150772857Y-87352285D01*
X150868095Y-87352285D01*
X151010952Y-87399904D01*
X151582380Y-87971333D01*
X151582380Y-87352285D01*
%TO.C,R22*%
X182062380Y-78874857D02*
X181586190Y-79208190D01*
X182062380Y-79446285D02*
X181062380Y-79446285D01*
X181062380Y-79065333D01*
X181110000Y-78970095D01*
X181157619Y-78922476D01*
X181252857Y-78874857D01*
X181395714Y-78874857D01*
X181490952Y-78922476D01*
X181538571Y-78970095D01*
X181586190Y-79065333D01*
X181586190Y-79446285D01*
X181157619Y-78493904D02*
X181110000Y-78446285D01*
X181062380Y-78351047D01*
X181062380Y-78112952D01*
X181110000Y-78017714D01*
X181157619Y-77970095D01*
X181252857Y-77922476D01*
X181348095Y-77922476D01*
X181490952Y-77970095D01*
X182062380Y-78541523D01*
X182062380Y-77922476D01*
X181157619Y-77541523D02*
X181110000Y-77493904D01*
X181062380Y-77398666D01*
X181062380Y-77160571D01*
X181110000Y-77065333D01*
X181157619Y-77017714D01*
X181252857Y-76970095D01*
X181348095Y-76970095D01*
X181490952Y-77017714D01*
X182062380Y-77589142D01*
X182062380Y-76970095D01*
X183432380Y-80017714D02*
X183432380Y-79398666D01*
X183813333Y-79732000D01*
X183813333Y-79589142D01*
X183860952Y-79493904D01*
X183908571Y-79446285D01*
X184003809Y-79398666D01*
X184241904Y-79398666D01*
X184337142Y-79446285D01*
X184384761Y-79493904D01*
X184432380Y-79589142D01*
X184432380Y-79874857D01*
X184384761Y-79970095D01*
X184337142Y-80017714D01*
X184432380Y-78922476D02*
X184432380Y-78732000D01*
X184384761Y-78636761D01*
X184337142Y-78589142D01*
X184194285Y-78493904D01*
X184003809Y-78446285D01*
X183622857Y-78446285D01*
X183527619Y-78493904D01*
X183480000Y-78541523D01*
X183432380Y-78636761D01*
X183432380Y-78827238D01*
X183480000Y-78922476D01*
X183527619Y-78970095D01*
X183622857Y-79017714D01*
X183860952Y-79017714D01*
X183956190Y-78970095D01*
X184003809Y-78922476D01*
X184051428Y-78827238D01*
X184051428Y-78636761D01*
X184003809Y-78541523D01*
X183956190Y-78493904D01*
X183860952Y-78446285D01*
X183432380Y-77827238D02*
X183432380Y-77732000D01*
X183480000Y-77636761D01*
X183527619Y-77589142D01*
X183622857Y-77541523D01*
X183813333Y-77493904D01*
X184051428Y-77493904D01*
X184241904Y-77541523D01*
X184337142Y-77589142D01*
X184384761Y-77636761D01*
X184432380Y-77732000D01*
X184432380Y-77827238D01*
X184384761Y-77922476D01*
X184337142Y-77970095D01*
X184241904Y-78017714D01*
X184051428Y-78065333D01*
X183813333Y-78065333D01*
X183622857Y-78017714D01*
X183527619Y-77970095D01*
X183480000Y-77922476D01*
X183432380Y-77827238D01*
X184432380Y-76493904D02*
X183956190Y-76827238D01*
X184432380Y-77065333D02*
X183432380Y-77065333D01*
X183432380Y-76684380D01*
X183480000Y-76589142D01*
X183527619Y-76541523D01*
X183622857Y-76493904D01*
X183765714Y-76493904D01*
X183860952Y-76541523D01*
X183908571Y-76589142D01*
X183956190Y-76684380D01*
X183956190Y-77065333D01*
%TO.C,R19*%
X179014380Y-78874857D02*
X178538190Y-79208190D01*
X179014380Y-79446285D02*
X178014380Y-79446285D01*
X178014380Y-79065333D01*
X178062000Y-78970095D01*
X178109619Y-78922476D01*
X178204857Y-78874857D01*
X178347714Y-78874857D01*
X178442952Y-78922476D01*
X178490571Y-78970095D01*
X178538190Y-79065333D01*
X178538190Y-79446285D01*
X179014380Y-77922476D02*
X179014380Y-78493904D01*
X179014380Y-78208190D02*
X178014380Y-78208190D01*
X178157238Y-78303428D01*
X178252476Y-78398666D01*
X178300095Y-78493904D01*
X179014380Y-77446285D02*
X179014380Y-77255809D01*
X178966761Y-77160571D01*
X178919142Y-77112952D01*
X178776285Y-77017714D01*
X178585809Y-76970095D01*
X178204857Y-76970095D01*
X178109619Y-77017714D01*
X178062000Y-77065333D01*
X178014380Y-77160571D01*
X178014380Y-77351047D01*
X178062000Y-77446285D01*
X178109619Y-77493904D01*
X178204857Y-77541523D01*
X178442952Y-77541523D01*
X178538190Y-77493904D01*
X178585809Y-77446285D01*
X178633428Y-77351047D01*
X178633428Y-77160571D01*
X178585809Y-77065333D01*
X178538190Y-77017714D01*
X178442952Y-76970095D01*
%TO.C,R17*%
X175966380Y-78874857D02*
X175490190Y-79208190D01*
X175966380Y-79446285D02*
X174966380Y-79446285D01*
X174966380Y-79065333D01*
X175014000Y-78970095D01*
X175061619Y-78922476D01*
X175156857Y-78874857D01*
X175299714Y-78874857D01*
X175394952Y-78922476D01*
X175442571Y-78970095D01*
X175490190Y-79065333D01*
X175490190Y-79446285D01*
X175966380Y-77922476D02*
X175966380Y-78493904D01*
X175966380Y-78208190D02*
X174966380Y-78208190D01*
X175109238Y-78303428D01*
X175204476Y-78398666D01*
X175252095Y-78493904D01*
X174966380Y-77589142D02*
X174966380Y-76922476D01*
X175966380Y-77351047D01*
%TO.C,R15*%
X172918380Y-78874857D02*
X172442190Y-79208190D01*
X172918380Y-79446285D02*
X171918380Y-79446285D01*
X171918380Y-79065333D01*
X171966000Y-78970095D01*
X172013619Y-78922476D01*
X172108857Y-78874857D01*
X172251714Y-78874857D01*
X172346952Y-78922476D01*
X172394571Y-78970095D01*
X172442190Y-79065333D01*
X172442190Y-79446285D01*
X172918380Y-77922476D02*
X172918380Y-78493904D01*
X172918380Y-78208190D02*
X171918380Y-78208190D01*
X172061238Y-78303428D01*
X172156476Y-78398666D01*
X172204095Y-78493904D01*
X171918380Y-77017714D02*
X171918380Y-77493904D01*
X172394571Y-77541523D01*
X172346952Y-77493904D01*
X172299333Y-77398666D01*
X172299333Y-77160571D01*
X172346952Y-77065333D01*
X172394571Y-77017714D01*
X172489809Y-76970095D01*
X172727904Y-76970095D01*
X172823142Y-77017714D01*
X172870761Y-77065333D01*
X172918380Y-77160571D01*
X172918380Y-77398666D01*
X172870761Y-77493904D01*
X172823142Y-77541523D01*
%TO.C,R13*%
X169870380Y-78874857D02*
X169394190Y-79208190D01*
X169870380Y-79446285D02*
X168870380Y-79446285D01*
X168870380Y-79065333D01*
X168918000Y-78970095D01*
X168965619Y-78922476D01*
X169060857Y-78874857D01*
X169203714Y-78874857D01*
X169298952Y-78922476D01*
X169346571Y-78970095D01*
X169394190Y-79065333D01*
X169394190Y-79446285D01*
X169870380Y-77922476D02*
X169870380Y-78493904D01*
X169870380Y-78208190D02*
X168870380Y-78208190D01*
X169013238Y-78303428D01*
X169108476Y-78398666D01*
X169156095Y-78493904D01*
X168870380Y-77589142D02*
X168870380Y-76970095D01*
X169251333Y-77303428D01*
X169251333Y-77160571D01*
X169298952Y-77065333D01*
X169346571Y-77017714D01*
X169441809Y-76970095D01*
X169679904Y-76970095D01*
X169775142Y-77017714D01*
X169822761Y-77065333D01*
X169870380Y-77160571D01*
X169870380Y-77446285D01*
X169822761Y-77541523D01*
X169775142Y-77589142D01*
%TO.C,R11*%
X166568380Y-78874857D02*
X166092190Y-79208190D01*
X166568380Y-79446285D02*
X165568380Y-79446285D01*
X165568380Y-79065333D01*
X165616000Y-78970095D01*
X165663619Y-78922476D01*
X165758857Y-78874857D01*
X165901714Y-78874857D01*
X165996952Y-78922476D01*
X166044571Y-78970095D01*
X166092190Y-79065333D01*
X166092190Y-79446285D01*
X166568380Y-77922476D02*
X166568380Y-78493904D01*
X166568380Y-78208190D02*
X165568380Y-78208190D01*
X165711238Y-78303428D01*
X165806476Y-78398666D01*
X165854095Y-78493904D01*
X166568380Y-76970095D02*
X166568380Y-77541523D01*
X166568380Y-77255809D02*
X165568380Y-77255809D01*
X165711238Y-77351047D01*
X165806476Y-77446285D01*
X165854095Y-77541523D01*
%TO.C,R9*%
X163774380Y-78398666D02*
X163298190Y-78732000D01*
X163774380Y-78970095D02*
X162774380Y-78970095D01*
X162774380Y-78589142D01*
X162822000Y-78493904D01*
X162869619Y-78446285D01*
X162964857Y-78398666D01*
X163107714Y-78398666D01*
X163202952Y-78446285D01*
X163250571Y-78493904D01*
X163298190Y-78589142D01*
X163298190Y-78970095D01*
X163774380Y-77922476D02*
X163774380Y-77732000D01*
X163726761Y-77636761D01*
X163679142Y-77589142D01*
X163536285Y-77493904D01*
X163345809Y-77446285D01*
X162964857Y-77446285D01*
X162869619Y-77493904D01*
X162822000Y-77541523D01*
X162774380Y-77636761D01*
X162774380Y-77827238D01*
X162822000Y-77922476D01*
X162869619Y-77970095D01*
X162964857Y-78017714D01*
X163202952Y-78017714D01*
X163298190Y-77970095D01*
X163345809Y-77922476D01*
X163393428Y-77827238D01*
X163393428Y-77636761D01*
X163345809Y-77541523D01*
X163298190Y-77493904D01*
X163202952Y-77446285D01*
%TO.C,R7*%
X160726380Y-78398666D02*
X160250190Y-78732000D01*
X160726380Y-78970095D02*
X159726380Y-78970095D01*
X159726380Y-78589142D01*
X159774000Y-78493904D01*
X159821619Y-78446285D01*
X159916857Y-78398666D01*
X160059714Y-78398666D01*
X160154952Y-78446285D01*
X160202571Y-78493904D01*
X160250190Y-78589142D01*
X160250190Y-78970095D01*
X159726380Y-78065333D02*
X159726380Y-77398666D01*
X160726380Y-77827238D01*
%TO.C,R5*%
X157678380Y-78398666D02*
X157202190Y-78732000D01*
X157678380Y-78970095D02*
X156678380Y-78970095D01*
X156678380Y-78589142D01*
X156726000Y-78493904D01*
X156773619Y-78446285D01*
X156868857Y-78398666D01*
X157011714Y-78398666D01*
X157106952Y-78446285D01*
X157154571Y-78493904D01*
X157202190Y-78589142D01*
X157202190Y-78970095D01*
X156678380Y-77493904D02*
X156678380Y-77970095D01*
X157154571Y-78017714D01*
X157106952Y-77970095D01*
X157059333Y-77874857D01*
X157059333Y-77636761D01*
X157106952Y-77541523D01*
X157154571Y-77493904D01*
X157249809Y-77446285D01*
X157487904Y-77446285D01*
X157583142Y-77493904D01*
X157630761Y-77541523D01*
X157678380Y-77636761D01*
X157678380Y-77874857D01*
X157630761Y-77970095D01*
X157583142Y-78017714D01*
%TO.C,R3*%
X154630380Y-78398666D02*
X154154190Y-78732000D01*
X154630380Y-78970095D02*
X153630380Y-78970095D01*
X153630380Y-78589142D01*
X153678000Y-78493904D01*
X153725619Y-78446285D01*
X153820857Y-78398666D01*
X153963714Y-78398666D01*
X154058952Y-78446285D01*
X154106571Y-78493904D01*
X154154190Y-78589142D01*
X154154190Y-78970095D01*
X153630380Y-78065333D02*
X153630380Y-77446285D01*
X154011333Y-77779619D01*
X154011333Y-77636761D01*
X154058952Y-77541523D01*
X154106571Y-77493904D01*
X154201809Y-77446285D01*
X154439904Y-77446285D01*
X154535142Y-77493904D01*
X154582761Y-77541523D01*
X154630380Y-77636761D01*
X154630380Y-77922476D01*
X154582761Y-78017714D01*
X154535142Y-78065333D01*
%TO.C,R1*%
X151582380Y-78398666D02*
X151106190Y-78732000D01*
X151582380Y-78970095D02*
X150582380Y-78970095D01*
X150582380Y-78589142D01*
X150630000Y-78493904D01*
X150677619Y-78446285D01*
X150772857Y-78398666D01*
X150915714Y-78398666D01*
X151010952Y-78446285D01*
X151058571Y-78493904D01*
X151106190Y-78589142D01*
X151106190Y-78970095D01*
X151582380Y-77446285D02*
X151582380Y-78017714D01*
X151582380Y-77732000D02*
X150582380Y-77732000D01*
X150725238Y-77827238D01*
X150820476Y-77922476D01*
X150868095Y-78017714D01*
%TO.C,R21*%
X145486380Y-78620857D02*
X145010190Y-78954190D01*
X145486380Y-79192285D02*
X144486380Y-79192285D01*
X144486380Y-78811333D01*
X144534000Y-78716095D01*
X144581619Y-78668476D01*
X144676857Y-78620857D01*
X144819714Y-78620857D01*
X144914952Y-78668476D01*
X144962571Y-78716095D01*
X145010190Y-78811333D01*
X145010190Y-79192285D01*
X144581619Y-78239904D02*
X144534000Y-78192285D01*
X144486380Y-78097047D01*
X144486380Y-77858952D01*
X144534000Y-77763714D01*
X144581619Y-77716095D01*
X144676857Y-77668476D01*
X144772095Y-77668476D01*
X144914952Y-77716095D01*
X145486380Y-78287523D01*
X145486380Y-77668476D01*
X145486380Y-76716095D02*
X145486380Y-77287523D01*
X145486380Y-77001809D02*
X144486380Y-77001809D01*
X144629238Y-77097047D01*
X144724476Y-77192285D01*
X144772095Y-77287523D01*
%TO.C,JP1*%
X144486380Y-81859333D02*
X145200666Y-81859333D01*
X145343523Y-81906952D01*
X145438761Y-82002190D01*
X145486380Y-82145047D01*
X145486380Y-82240285D01*
X145486380Y-81383142D02*
X144486380Y-81383142D01*
X144486380Y-81002190D01*
X144534000Y-80906952D01*
X144581619Y-80859333D01*
X144676857Y-80811714D01*
X144819714Y-80811714D01*
X144914952Y-80859333D01*
X144962571Y-80906952D01*
X145010190Y-81002190D01*
X145010190Y-81383142D01*
X145486380Y-79859333D02*
X145486380Y-80430761D01*
X145486380Y-80145047D02*
X144486380Y-80145047D01*
X144629238Y-80240285D01*
X144724476Y-80335523D01*
X144772095Y-80430761D01*
%TO.C,SW2*%
X135266666Y-113180761D02*
X135409523Y-113228380D01*
X135647619Y-113228380D01*
X135742857Y-113180761D01*
X135790476Y-113133142D01*
X135838095Y-113037904D01*
X135838095Y-112942666D01*
X135790476Y-112847428D01*
X135742857Y-112799809D01*
X135647619Y-112752190D01*
X135457142Y-112704571D01*
X135361904Y-112656952D01*
X135314285Y-112609333D01*
X135266666Y-112514095D01*
X135266666Y-112418857D01*
X135314285Y-112323619D01*
X135361904Y-112276000D01*
X135457142Y-112228380D01*
X135695238Y-112228380D01*
X135838095Y-112276000D01*
X136171428Y-112228380D02*
X136409523Y-113228380D01*
X136600000Y-112514095D01*
X136790476Y-113228380D01*
X137028571Y-112228380D01*
X137361904Y-112323619D02*
X137409523Y-112276000D01*
X137504761Y-112228380D01*
X137742857Y-112228380D01*
X137838095Y-112276000D01*
X137885714Y-112323619D01*
X137933333Y-112418857D01*
X137933333Y-112514095D01*
X137885714Y-112656952D01*
X137314285Y-113228380D01*
X137933333Y-113228380D01*
D11*
X136549047Y-108757980D02*
X136549047Y-107757980D01*
X136787142Y-107757980D01*
X136930000Y-107805600D01*
X137025238Y-107900838D01*
X137072857Y-107996076D01*
X137120476Y-108186552D01*
X137120476Y-108329409D01*
X137072857Y-108519885D01*
X137025238Y-108615123D01*
X136930000Y-108710361D01*
X136787142Y-108757980D01*
X136549047Y-108757980D01*
X137739523Y-107757980D02*
X137930000Y-107757980D01*
X138025238Y-107805600D01*
X138120476Y-107900838D01*
X138168095Y-108091314D01*
X138168095Y-108424647D01*
X138120476Y-108615123D01*
X138025238Y-108710361D01*
X137930000Y-108757980D01*
X137739523Y-108757980D01*
X137644285Y-108710361D01*
X137549047Y-108615123D01*
X137501428Y-108424647D01*
X137501428Y-108091314D01*
X137549047Y-107900838D01*
X137644285Y-107805600D01*
X137739523Y-107757980D01*
X138501428Y-107757980D02*
X138739523Y-108757980D01*
X138930000Y-108043695D01*
X139120476Y-108757980D01*
X139358571Y-107757980D01*
X139739523Y-108757980D02*
X139739523Y-107757980D01*
X140310952Y-108757980D01*
X140310952Y-107757980D01*
%TO.C,R25*%
D10*
X168267142Y-117038380D02*
X167933809Y-116562190D01*
X167695714Y-117038380D02*
X167695714Y-116038380D01*
X168076666Y-116038380D01*
X168171904Y-116086000D01*
X168219523Y-116133619D01*
X168267142Y-116228857D01*
X168267142Y-116371714D01*
X168219523Y-116466952D01*
X168171904Y-116514571D01*
X168076666Y-116562190D01*
X167695714Y-116562190D01*
X168648095Y-116133619D02*
X168695714Y-116086000D01*
X168790952Y-116038380D01*
X169029047Y-116038380D01*
X169124285Y-116086000D01*
X169171904Y-116133619D01*
X169219523Y-116228857D01*
X169219523Y-116324095D01*
X169171904Y-116466952D01*
X168600476Y-117038380D01*
X169219523Y-117038380D01*
X170124285Y-116038380D02*
X169648095Y-116038380D01*
X169600476Y-116514571D01*
X169648095Y-116466952D01*
X169743333Y-116419333D01*
X169981428Y-116419333D01*
X170076666Y-116466952D01*
X170124285Y-116514571D01*
X170171904Y-116609809D01*
X170171904Y-116847904D01*
X170124285Y-116943142D01*
X170076666Y-116990761D01*
X169981428Y-117038380D01*
X169743333Y-117038380D01*
X169648095Y-116990761D01*
X169600476Y-116943142D01*
X167124285Y-114260380D02*
X167743333Y-114260380D01*
X167410000Y-114641333D01*
X167552857Y-114641333D01*
X167648095Y-114688952D01*
X167695714Y-114736571D01*
X167743333Y-114831809D01*
X167743333Y-115069904D01*
X167695714Y-115165142D01*
X167648095Y-115212761D01*
X167552857Y-115260380D01*
X167267142Y-115260380D01*
X167171904Y-115212761D01*
X167124285Y-115165142D01*
X168076666Y-114260380D02*
X168695714Y-114260380D01*
X168362380Y-114641333D01*
X168505238Y-114641333D01*
X168600476Y-114688952D01*
X168648095Y-114736571D01*
X168695714Y-114831809D01*
X168695714Y-115069904D01*
X168648095Y-115165142D01*
X168600476Y-115212761D01*
X168505238Y-115260380D01*
X168219523Y-115260380D01*
X168124285Y-115212761D01*
X168076666Y-115165142D01*
X169314761Y-114260380D02*
X169410000Y-114260380D01*
X169505238Y-114308000D01*
X169552857Y-114355619D01*
X169600476Y-114450857D01*
X169648095Y-114641333D01*
X169648095Y-114879428D01*
X169600476Y-115069904D01*
X169552857Y-115165142D01*
X169505238Y-115212761D01*
X169410000Y-115260380D01*
X169314761Y-115260380D01*
X169219523Y-115212761D01*
X169171904Y-115165142D01*
X169124285Y-115069904D01*
X169076666Y-114879428D01*
X169076666Y-114641333D01*
X169124285Y-114450857D01*
X169171904Y-114355619D01*
X169219523Y-114308000D01*
X169314761Y-114260380D01*
X170648095Y-115260380D02*
X170314761Y-114784190D01*
X170076666Y-115260380D02*
X170076666Y-114260380D01*
X170457619Y-114260380D01*
X170552857Y-114308000D01*
X170600476Y-114355619D01*
X170648095Y-114450857D01*
X170648095Y-114593714D01*
X170600476Y-114688952D01*
X170552857Y-114736571D01*
X170457619Y-114784190D01*
X170076666Y-114784190D01*
%TO.C,U1*%
X178014380Y-57911904D02*
X178823904Y-57911904D01*
X178919142Y-57864285D01*
X178966761Y-57816666D01*
X179014380Y-57721428D01*
X179014380Y-57530952D01*
X178966761Y-57435714D01*
X178919142Y-57388095D01*
X178823904Y-57340476D01*
X178014380Y-57340476D01*
X179014380Y-56340476D02*
X179014380Y-56911904D01*
X179014380Y-56626190D02*
X178014380Y-56626190D01*
X178157238Y-56721428D01*
X178252476Y-56816666D01*
X178300095Y-56911904D01*
X185809333Y-56602380D02*
X186476000Y-56602380D01*
X186047428Y-57602380D01*
X187285523Y-56935714D02*
X187285523Y-57602380D01*
X187047428Y-56554761D02*
X186809333Y-57269047D01*
X187428380Y-57269047D01*
X187809333Y-57602380D02*
X187809333Y-56602380D01*
X187809333Y-57078571D02*
X188380761Y-57078571D01*
X188380761Y-57602380D02*
X188380761Y-56602380D01*
X189428380Y-57507142D02*
X189380761Y-57554761D01*
X189237904Y-57602380D01*
X189142666Y-57602380D01*
X188999809Y-57554761D01*
X188904571Y-57459523D01*
X188856952Y-57364285D01*
X188809333Y-57173809D01*
X188809333Y-57030952D01*
X188856952Y-56840476D01*
X188904571Y-56745238D01*
X188999809Y-56650000D01*
X189142666Y-56602380D01*
X189237904Y-56602380D01*
X189380761Y-56650000D01*
X189428380Y-56697619D01*
X189714095Y-56602380D02*
X190285523Y-56602380D01*
X189999809Y-57602380D02*
X189999809Y-56602380D01*
X191142666Y-57602380D02*
X190571238Y-57602380D01*
X190856952Y-57602380D02*
X190856952Y-56602380D01*
X190761714Y-56745238D01*
X190666476Y-56840476D01*
X190571238Y-56888095D01*
X191999809Y-56935714D02*
X191999809Y-57602380D01*
X191761714Y-56554761D02*
X191523619Y-57269047D01*
X192142666Y-57269047D01*
%TO.C,SW4*%
X147816666Y-109370761D02*
X147959523Y-109418380D01*
X148197619Y-109418380D01*
X148292857Y-109370761D01*
X148340476Y-109323142D01*
X148388095Y-109227904D01*
X148388095Y-109132666D01*
X148340476Y-109037428D01*
X148292857Y-108989809D01*
X148197619Y-108942190D01*
X148007142Y-108894571D01*
X147911904Y-108846952D01*
X147864285Y-108799333D01*
X147816666Y-108704095D01*
X147816666Y-108608857D01*
X147864285Y-108513619D01*
X147911904Y-108466000D01*
X148007142Y-108418380D01*
X148245238Y-108418380D01*
X148388095Y-108466000D01*
X148721428Y-108418380D02*
X148959523Y-109418380D01*
X149150000Y-108704095D01*
X149340476Y-109418380D01*
X149578571Y-108418380D01*
X150388095Y-108751714D02*
X150388095Y-109418380D01*
X150150000Y-108370761D02*
X149911904Y-109085047D01*
X150530952Y-109085047D01*
D11*
X147026571Y-104322571D02*
X147359904Y-104322571D01*
X147502761Y-104846380D02*
X147026571Y-104846380D01*
X147026571Y-103846380D01*
X147502761Y-103846380D01*
X147931333Y-104846380D02*
X147931333Y-103846380D01*
X148502761Y-104846380D01*
X148502761Y-103846380D01*
X148836095Y-103846380D02*
X149407523Y-103846380D01*
X149121809Y-104846380D02*
X149121809Y-103846380D01*
X149740857Y-104322571D02*
X150074190Y-104322571D01*
X150217047Y-104846380D02*
X149740857Y-104846380D01*
X149740857Y-103846380D01*
X150217047Y-103846380D01*
X151217047Y-104846380D02*
X150883714Y-104370190D01*
X150645619Y-104846380D02*
X150645619Y-103846380D01*
X151026571Y-103846380D01*
X151121809Y-103894000D01*
X151169428Y-103941619D01*
X151217047Y-104036857D01*
X151217047Y-104179714D01*
X151169428Y-104274952D01*
X151121809Y-104322571D01*
X151026571Y-104370190D01*
X150645619Y-104370190D01*
%TO.C,SW3*%
D10*
X135266666Y-104290761D02*
X135409523Y-104338380D01*
X135647619Y-104338380D01*
X135742857Y-104290761D01*
X135790476Y-104243142D01*
X135838095Y-104147904D01*
X135838095Y-104052666D01*
X135790476Y-103957428D01*
X135742857Y-103909809D01*
X135647619Y-103862190D01*
X135457142Y-103814571D01*
X135361904Y-103766952D01*
X135314285Y-103719333D01*
X135266666Y-103624095D01*
X135266666Y-103528857D01*
X135314285Y-103433619D01*
X135361904Y-103386000D01*
X135457142Y-103338380D01*
X135695238Y-103338380D01*
X135838095Y-103386000D01*
X136171428Y-103338380D02*
X136409523Y-104338380D01*
X136600000Y-103624095D01*
X136790476Y-104338380D01*
X137028571Y-103338380D01*
X137314285Y-103338380D02*
X137933333Y-103338380D01*
X137600000Y-103719333D01*
X137742857Y-103719333D01*
X137838095Y-103766952D01*
X137885714Y-103814571D01*
X137933333Y-103909809D01*
X137933333Y-104147904D01*
X137885714Y-104243142D01*
X137838095Y-104290761D01*
X137742857Y-104338380D01*
X137457142Y-104338380D01*
X137361904Y-104290761D01*
X137314285Y-104243142D01*
D11*
X133072285Y-107757980D02*
X133072285Y-108567504D01*
X133119904Y-108662742D01*
X133167523Y-108710361D01*
X133262761Y-108757980D01*
X133453238Y-108757980D01*
X133548476Y-108710361D01*
X133596095Y-108662742D01*
X133643714Y-108567504D01*
X133643714Y-107757980D01*
X134119904Y-108757980D02*
X134119904Y-107757980D01*
X134500857Y-107757980D01*
X134596095Y-107805600D01*
X134643714Y-107853219D01*
X134691333Y-107948457D01*
X134691333Y-108091314D01*
X134643714Y-108186552D01*
X134596095Y-108234171D01*
X134500857Y-108281790D01*
X134119904Y-108281790D01*
%TO.C,SW1*%
D10*
X122618666Y-109370761D02*
X122761523Y-109418380D01*
X122999619Y-109418380D01*
X123094857Y-109370761D01*
X123142476Y-109323142D01*
X123190095Y-109227904D01*
X123190095Y-109132666D01*
X123142476Y-109037428D01*
X123094857Y-108989809D01*
X122999619Y-108942190D01*
X122809142Y-108894571D01*
X122713904Y-108846952D01*
X122666285Y-108799333D01*
X122618666Y-108704095D01*
X122618666Y-108608857D01*
X122666285Y-108513619D01*
X122713904Y-108466000D01*
X122809142Y-108418380D01*
X123047238Y-108418380D01*
X123190095Y-108466000D01*
X123523428Y-108418380D02*
X123761523Y-109418380D01*
X123952000Y-108704095D01*
X124142476Y-109418380D01*
X124380571Y-108418380D01*
X125285333Y-109418380D02*
X124713904Y-109418380D01*
X124999619Y-109418380D02*
X124999619Y-108418380D01*
X124904380Y-108561238D01*
X124809142Y-108656476D01*
X124713904Y-108704095D01*
D11*
X119912285Y-104846380D02*
X119912285Y-103846380D01*
X120245619Y-104560666D01*
X120578952Y-103846380D01*
X120578952Y-104846380D01*
X121055142Y-104322571D02*
X121388476Y-104322571D01*
X121531333Y-104846380D02*
X121055142Y-104846380D01*
X121055142Y-103846380D01*
X121531333Y-103846380D01*
X121959904Y-104846380D02*
X121959904Y-103846380D01*
X122531333Y-104846380D01*
X122531333Y-103846380D01*
X123007523Y-103846380D02*
X123007523Y-104655904D01*
X123055142Y-104751142D01*
X123102761Y-104798761D01*
X123198000Y-104846380D01*
X123388476Y-104846380D01*
X123483714Y-104798761D01*
X123531333Y-104751142D01*
X123578952Y-104655904D01*
X123578952Y-103846380D01*
X124769428Y-103798761D02*
X123912285Y-105084476D01*
X125102761Y-104322571D02*
X125436095Y-104322571D01*
X125578952Y-104846380D02*
X125102761Y-104846380D01*
X125102761Y-103846380D01*
X125578952Y-103846380D01*
X125959904Y-104798761D02*
X126102761Y-104846380D01*
X126340857Y-104846380D01*
X126436095Y-104798761D01*
X126483714Y-104751142D01*
X126531333Y-104655904D01*
X126531333Y-104560666D01*
X126483714Y-104465428D01*
X126436095Y-104417809D01*
X126340857Y-104370190D01*
X126150380Y-104322571D01*
X126055142Y-104274952D01*
X126007523Y-104227333D01*
X125959904Y-104132095D01*
X125959904Y-104036857D01*
X126007523Y-103941619D01*
X126055142Y-103894000D01*
X126150380Y-103846380D01*
X126388476Y-103846380D01*
X126531333Y-103894000D01*
X127531333Y-104751142D02*
X127483714Y-104798761D01*
X127340857Y-104846380D01*
X127245619Y-104846380D01*
X127102761Y-104798761D01*
X127007523Y-104703523D01*
X126959904Y-104608285D01*
X126912285Y-104417809D01*
X126912285Y-104274952D01*
X126959904Y-104084476D01*
X127007523Y-103989238D01*
X127102761Y-103894000D01*
X127245619Y-103846380D01*
X127340857Y-103846380D01*
X127483714Y-103894000D01*
X127531333Y-103941619D01*
%TO.C,RV1*%
D10*
X109894761Y-61920380D02*
X109561428Y-61444190D01*
X109323333Y-61920380D02*
X109323333Y-60920380D01*
X109704285Y-60920380D01*
X109799523Y-60968000D01*
X109847142Y-61015619D01*
X109894761Y-61110857D01*
X109894761Y-61253714D01*
X109847142Y-61348952D01*
X109799523Y-61396571D01*
X109704285Y-61444190D01*
X109323333Y-61444190D01*
X110180476Y-60920380D02*
X110513809Y-61920380D01*
X110847142Y-60920380D01*
X111704285Y-61920380D02*
X111132857Y-61920380D01*
X111418571Y-61920380D02*
X111418571Y-60920380D01*
X111323333Y-61063238D01*
X111228095Y-61158476D01*
X111132857Y-61206095D01*
%TO.C,R26*%
X175887142Y-117038380D02*
X175553809Y-116562190D01*
X175315714Y-117038380D02*
X175315714Y-116038380D01*
X175696666Y-116038380D01*
X175791904Y-116086000D01*
X175839523Y-116133619D01*
X175887142Y-116228857D01*
X175887142Y-116371714D01*
X175839523Y-116466952D01*
X175791904Y-116514571D01*
X175696666Y-116562190D01*
X175315714Y-116562190D01*
X176268095Y-116133619D02*
X176315714Y-116086000D01*
X176410952Y-116038380D01*
X176649047Y-116038380D01*
X176744285Y-116086000D01*
X176791904Y-116133619D01*
X176839523Y-116228857D01*
X176839523Y-116324095D01*
X176791904Y-116466952D01*
X176220476Y-117038380D01*
X176839523Y-117038380D01*
X177696666Y-116038380D02*
X177506190Y-116038380D01*
X177410952Y-116086000D01*
X177363333Y-116133619D01*
X177268095Y-116276476D01*
X177220476Y-116466952D01*
X177220476Y-116847904D01*
X177268095Y-116943142D01*
X177315714Y-116990761D01*
X177410952Y-117038380D01*
X177601428Y-117038380D01*
X177696666Y-116990761D01*
X177744285Y-116943142D01*
X177791904Y-116847904D01*
X177791904Y-116609809D01*
X177744285Y-116514571D01*
X177696666Y-116466952D01*
X177601428Y-116419333D01*
X177410952Y-116419333D01*
X177315714Y-116466952D01*
X177268095Y-116514571D01*
X177220476Y-116609809D01*
X174490285Y-114260380D02*
X175109333Y-114260380D01*
X174776000Y-114641333D01*
X174918857Y-114641333D01*
X175014095Y-114688952D01*
X175061714Y-114736571D01*
X175109333Y-114831809D01*
X175109333Y-115069904D01*
X175061714Y-115165142D01*
X175014095Y-115212761D01*
X174918857Y-115260380D01*
X174633142Y-115260380D01*
X174537904Y-115212761D01*
X174490285Y-115165142D01*
X175442666Y-114260380D02*
X176061714Y-114260380D01*
X175728380Y-114641333D01*
X175871238Y-114641333D01*
X175966476Y-114688952D01*
X176014095Y-114736571D01*
X176061714Y-114831809D01*
X176061714Y-115069904D01*
X176014095Y-115165142D01*
X175966476Y-115212761D01*
X175871238Y-115260380D01*
X175585523Y-115260380D01*
X175490285Y-115212761D01*
X175442666Y-115165142D01*
X176680761Y-114260380D02*
X176776000Y-114260380D01*
X176871238Y-114308000D01*
X176918857Y-114355619D01*
X176966476Y-114450857D01*
X177014095Y-114641333D01*
X177014095Y-114879428D01*
X176966476Y-115069904D01*
X176918857Y-115165142D01*
X176871238Y-115212761D01*
X176776000Y-115260380D01*
X176680761Y-115260380D01*
X176585523Y-115212761D01*
X176537904Y-115165142D01*
X176490285Y-115069904D01*
X176442666Y-114879428D01*
X176442666Y-114641333D01*
X176490285Y-114450857D01*
X176537904Y-114355619D01*
X176585523Y-114308000D01*
X176680761Y-114260380D01*
X178014095Y-115260380D02*
X177680761Y-114784190D01*
X177442666Y-115260380D02*
X177442666Y-114260380D01*
X177823619Y-114260380D01*
X177918857Y-114308000D01*
X177966476Y-114355619D01*
X178014095Y-114450857D01*
X178014095Y-114593714D01*
X177966476Y-114688952D01*
X177918857Y-114736571D01*
X177823619Y-114784190D01*
X177442666Y-114784190D01*
%TO.C,R24*%
X160901142Y-117038380D02*
X160567809Y-116562190D01*
X160329714Y-117038380D02*
X160329714Y-116038380D01*
X160710666Y-116038380D01*
X160805904Y-116086000D01*
X160853523Y-116133619D01*
X160901142Y-116228857D01*
X160901142Y-116371714D01*
X160853523Y-116466952D01*
X160805904Y-116514571D01*
X160710666Y-116562190D01*
X160329714Y-116562190D01*
X161282095Y-116133619D02*
X161329714Y-116086000D01*
X161424952Y-116038380D01*
X161663047Y-116038380D01*
X161758285Y-116086000D01*
X161805904Y-116133619D01*
X161853523Y-116228857D01*
X161853523Y-116324095D01*
X161805904Y-116466952D01*
X161234476Y-117038380D01*
X161853523Y-117038380D01*
X162710666Y-116371714D02*
X162710666Y-117038380D01*
X162472571Y-115990761D02*
X162234476Y-116705047D01*
X162853523Y-116705047D01*
X159758285Y-114260380D02*
X160377333Y-114260380D01*
X160044000Y-114641333D01*
X160186857Y-114641333D01*
X160282095Y-114688952D01*
X160329714Y-114736571D01*
X160377333Y-114831809D01*
X160377333Y-115069904D01*
X160329714Y-115165142D01*
X160282095Y-115212761D01*
X160186857Y-115260380D01*
X159901142Y-115260380D01*
X159805904Y-115212761D01*
X159758285Y-115165142D01*
X160710666Y-114260380D02*
X161329714Y-114260380D01*
X160996380Y-114641333D01*
X161139238Y-114641333D01*
X161234476Y-114688952D01*
X161282095Y-114736571D01*
X161329714Y-114831809D01*
X161329714Y-115069904D01*
X161282095Y-115165142D01*
X161234476Y-115212761D01*
X161139238Y-115260380D01*
X160853523Y-115260380D01*
X160758285Y-115212761D01*
X160710666Y-115165142D01*
X161948761Y-114260380D02*
X162044000Y-114260380D01*
X162139238Y-114308000D01*
X162186857Y-114355619D01*
X162234476Y-114450857D01*
X162282095Y-114641333D01*
X162282095Y-114879428D01*
X162234476Y-115069904D01*
X162186857Y-115165142D01*
X162139238Y-115212761D01*
X162044000Y-115260380D01*
X161948761Y-115260380D01*
X161853523Y-115212761D01*
X161805904Y-115165142D01*
X161758285Y-115069904D01*
X161710666Y-114879428D01*
X161710666Y-114641333D01*
X161758285Y-114450857D01*
X161805904Y-114355619D01*
X161853523Y-114308000D01*
X161948761Y-114260380D01*
X163282095Y-115260380D02*
X162948761Y-114784190D01*
X162710666Y-115260380D02*
X162710666Y-114260380D01*
X163091619Y-114260380D01*
X163186857Y-114308000D01*
X163234476Y-114355619D01*
X163282095Y-114450857D01*
X163282095Y-114593714D01*
X163234476Y-114688952D01*
X163186857Y-114736571D01*
X163091619Y-114784190D01*
X162710666Y-114784190D01*
%TO.C,J1*%
X172172380Y-56213333D02*
X172886666Y-56213333D01*
X173029523Y-56260952D01*
X173124761Y-56356190D01*
X173172380Y-56499047D01*
X173172380Y-56594285D01*
X173172380Y-55213333D02*
X173172380Y-55784761D01*
X173172380Y-55499047D02*
X172172380Y-55499047D01*
X172315238Y-55594285D01*
X172410476Y-55689523D01*
X172458095Y-55784761D01*
%TO.C,D3*%
X175537904Y-113482380D02*
X175537904Y-112482380D01*
X175776000Y-112482380D01*
X175918857Y-112530000D01*
X176014095Y-112625238D01*
X176061714Y-112720476D01*
X176109333Y-112910952D01*
X176109333Y-113053809D01*
X176061714Y-113244285D01*
X176014095Y-113339523D01*
X175918857Y-113434761D01*
X175776000Y-113482380D01*
X175537904Y-113482380D01*
X176442666Y-112482380D02*
X177061714Y-112482380D01*
X176728380Y-112863333D01*
X176871238Y-112863333D01*
X176966476Y-112910952D01*
X177014095Y-112958571D01*
X177061714Y-113053809D01*
X177061714Y-113291904D01*
X177014095Y-113387142D01*
X176966476Y-113434761D01*
X176871238Y-113482380D01*
X176585523Y-113482380D01*
X176490285Y-113434761D01*
X176442666Y-113387142D01*
D11*
X173466476Y-105259142D02*
X173418857Y-105306761D01*
X173276000Y-105354380D01*
X173180761Y-105354380D01*
X173037904Y-105306761D01*
X172942666Y-105211523D01*
X172895047Y-105116285D01*
X172847428Y-104925809D01*
X172847428Y-104782952D01*
X172895047Y-104592476D01*
X172942666Y-104497238D01*
X173037904Y-104402000D01*
X173180761Y-104354380D01*
X173276000Y-104354380D01*
X173418857Y-104402000D01*
X173466476Y-104449619D01*
X174085523Y-104354380D02*
X174276000Y-104354380D01*
X174371238Y-104402000D01*
X174466476Y-104497238D01*
X174514095Y-104687714D01*
X174514095Y-105021047D01*
X174466476Y-105211523D01*
X174371238Y-105306761D01*
X174276000Y-105354380D01*
X174085523Y-105354380D01*
X173990285Y-105306761D01*
X173895047Y-105211523D01*
X173847428Y-105021047D01*
X173847428Y-104687714D01*
X173895047Y-104497238D01*
X173990285Y-104402000D01*
X174085523Y-104354380D01*
X174942666Y-105354380D02*
X174942666Y-104354380D01*
X175276000Y-105068666D01*
X175609333Y-104354380D01*
X175609333Y-105354380D01*
X176085523Y-105354380D02*
X176085523Y-104354380D01*
X176418857Y-105068666D01*
X176752190Y-104354380D01*
X176752190Y-105354380D01*
X177180761Y-105068666D02*
X177656952Y-105068666D01*
X177085523Y-105354380D02*
X177418857Y-104354380D01*
X177752190Y-105354380D01*
X178085523Y-105354380D02*
X178085523Y-104354380D01*
X178656952Y-105354380D01*
X178656952Y-104354380D01*
X179133142Y-105354380D02*
X179133142Y-104354380D01*
X179371238Y-104354380D01*
X179514095Y-104402000D01*
X179609333Y-104497238D01*
X179656952Y-104592476D01*
X179704571Y-104782952D01*
X179704571Y-104925809D01*
X179656952Y-105116285D01*
X179609333Y-105211523D01*
X179514095Y-105306761D01*
X179371238Y-105354380D01*
X179133142Y-105354380D01*
%TO.C,D2*%
D10*
X168171904Y-113482380D02*
X168171904Y-112482380D01*
X168410000Y-112482380D01*
X168552857Y-112530000D01*
X168648095Y-112625238D01*
X168695714Y-112720476D01*
X168743333Y-112910952D01*
X168743333Y-113053809D01*
X168695714Y-113244285D01*
X168648095Y-113339523D01*
X168552857Y-113434761D01*
X168410000Y-113482380D01*
X168171904Y-113482380D01*
X169124285Y-112577619D02*
X169171904Y-112530000D01*
X169267142Y-112482380D01*
X169505238Y-112482380D01*
X169600476Y-112530000D01*
X169648095Y-112577619D01*
X169695714Y-112672857D01*
X169695714Y-112768095D01*
X169648095Y-112910952D01*
X169076666Y-113482380D01*
X169695714Y-113482380D01*
D11*
X167790952Y-105259142D02*
X167743333Y-105306761D01*
X167600476Y-105354380D01*
X167505238Y-105354380D01*
X167362380Y-105306761D01*
X167267142Y-105211523D01*
X167219523Y-105116285D01*
X167171904Y-104925809D01*
X167171904Y-104782952D01*
X167219523Y-104592476D01*
X167267142Y-104497238D01*
X167362380Y-104402000D01*
X167505238Y-104354380D01*
X167600476Y-104354380D01*
X167743333Y-104402000D01*
X167790952Y-104449619D01*
X168171904Y-105068666D02*
X168648095Y-105068666D01*
X168076666Y-105354380D02*
X168410000Y-104354380D01*
X168743333Y-105354380D01*
X169648095Y-105354380D02*
X169314761Y-104878190D01*
X169076666Y-105354380D02*
X169076666Y-104354380D01*
X169457619Y-104354380D01*
X169552857Y-104402000D01*
X169600476Y-104449619D01*
X169648095Y-104544857D01*
X169648095Y-104687714D01*
X169600476Y-104782952D01*
X169552857Y-104830571D01*
X169457619Y-104878190D01*
X169076666Y-104878190D01*
X170076666Y-105354380D02*
X170076666Y-104354380D01*
X170314761Y-104354380D01*
X170457619Y-104402000D01*
X170552857Y-104497238D01*
X170600476Y-104592476D01*
X170648095Y-104782952D01*
X170648095Y-104925809D01*
X170600476Y-105116285D01*
X170552857Y-105211523D01*
X170457619Y-105306761D01*
X170314761Y-105354380D01*
X170076666Y-105354380D01*
%TO.C,D1*%
D10*
X160805904Y-113482380D02*
X160805904Y-112482380D01*
X161044000Y-112482380D01*
X161186857Y-112530000D01*
X161282095Y-112625238D01*
X161329714Y-112720476D01*
X161377333Y-112910952D01*
X161377333Y-113053809D01*
X161329714Y-113244285D01*
X161282095Y-113339523D01*
X161186857Y-113434761D01*
X161044000Y-113482380D01*
X160805904Y-113482380D01*
X162329714Y-113482380D02*
X161758285Y-113482380D01*
X162044000Y-113482380D02*
X162044000Y-112482380D01*
X161948761Y-112625238D01*
X161853523Y-112720476D01*
X161758285Y-112768095D01*
D11*
X160401142Y-105354380D02*
X160401142Y-104354380D01*
X160877333Y-105354380D02*
X160877333Y-104354380D01*
X161448761Y-105354380D01*
X161448761Y-104354380D01*
X161924952Y-105354380D02*
X161924952Y-104354380D01*
X162258285Y-104354380D02*
X162829714Y-104354380D01*
X162544000Y-105354380D02*
X162544000Y-104354380D01*
%TO.C,C5*%
D10*
X155789333Y-97639142D02*
X155741714Y-97686761D01*
X155598857Y-97734380D01*
X155503619Y-97734380D01*
X155360761Y-97686761D01*
X155265523Y-97591523D01*
X155217904Y-97496285D01*
X155170285Y-97305809D01*
X155170285Y-97162952D01*
X155217904Y-96972476D01*
X155265523Y-96877238D01*
X155360761Y-96782000D01*
X155503619Y-96734380D01*
X155598857Y-96734380D01*
X155741714Y-96782000D01*
X155789333Y-96829619D01*
X156694095Y-96734380D02*
X156217904Y-96734380D01*
X156170285Y-97210571D01*
X156217904Y-97162952D01*
X156313142Y-97115333D01*
X156551238Y-97115333D01*
X156646476Y-97162952D01*
X156694095Y-97210571D01*
X156741714Y-97305809D01*
X156741714Y-97543904D01*
X156694095Y-97639142D01*
X156646476Y-97686761D01*
X156551238Y-97734380D01*
X156313142Y-97734380D01*
X156217904Y-97686761D01*
X156170285Y-97639142D01*
%TO.C,C4*%
X199985333Y-53015142D02*
X199937714Y-53062761D01*
X199794857Y-53110380D01*
X199699619Y-53110380D01*
X199556761Y-53062761D01*
X199461523Y-52967523D01*
X199413904Y-52872285D01*
X199366285Y-52681809D01*
X199366285Y-52538952D01*
X199413904Y-52348476D01*
X199461523Y-52253238D01*
X199556761Y-52158000D01*
X199699619Y-52110380D01*
X199794857Y-52110380D01*
X199937714Y-52158000D01*
X199985333Y-52205619D01*
X200842476Y-52443714D02*
X200842476Y-53110380D01*
X200604380Y-52062761D02*
X200366285Y-52777047D01*
X200985333Y-52777047D01*
%TO.C,C3*%
X174291333Y-97599142D02*
X174243714Y-97646761D01*
X174100857Y-97694380D01*
X174005619Y-97694380D01*
X173862761Y-97646761D01*
X173767523Y-97551523D01*
X173719904Y-97456285D01*
X173672285Y-97265809D01*
X173672285Y-97122952D01*
X173719904Y-96932476D01*
X173767523Y-96837238D01*
X173862761Y-96742000D01*
X174005619Y-96694380D01*
X174100857Y-96694380D01*
X174243714Y-96742000D01*
X174291333Y-96789619D01*
X174624666Y-96694380D02*
X175243714Y-96694380D01*
X174910380Y-97075333D01*
X175053238Y-97075333D01*
X175148476Y-97122952D01*
X175196095Y-97170571D01*
X175243714Y-97265809D01*
X175243714Y-97503904D01*
X175196095Y-97599142D01*
X175148476Y-97646761D01*
X175053238Y-97694380D01*
X174767523Y-97694380D01*
X174672285Y-97646761D01*
X174624666Y-97599142D01*
%TO.C,C2*%
X194651333Y-66143142D02*
X194603714Y-66190761D01*
X194460857Y-66238380D01*
X194365619Y-66238380D01*
X194222761Y-66190761D01*
X194127523Y-66095523D01*
X194079904Y-66000285D01*
X194032285Y-65809809D01*
X194032285Y-65666952D01*
X194079904Y-65476476D01*
X194127523Y-65381238D01*
X194222761Y-65286000D01*
X194365619Y-65238380D01*
X194460857Y-65238380D01*
X194603714Y-65286000D01*
X194651333Y-65333619D01*
X195032285Y-65333619D02*
X195079904Y-65286000D01*
X195175142Y-65238380D01*
X195413238Y-65238380D01*
X195508476Y-65286000D01*
X195556095Y-65333619D01*
X195603714Y-65428857D01*
X195603714Y-65524095D01*
X195556095Y-65666952D01*
X194984666Y-66238380D01*
X195603714Y-66238380D01*
%TO.C,C1*%
X110597333Y-109517142D02*
X110549714Y-109564761D01*
X110406857Y-109612380D01*
X110311619Y-109612380D01*
X110168761Y-109564761D01*
X110073523Y-109469523D01*
X110025904Y-109374285D01*
X109978285Y-109183809D01*
X109978285Y-109040952D01*
X110025904Y-108850476D01*
X110073523Y-108755238D01*
X110168761Y-108660000D01*
X110311619Y-108612380D01*
X110406857Y-108612380D01*
X110549714Y-108660000D01*
X110597333Y-108707619D01*
X111549714Y-109612380D02*
X110978285Y-109612380D01*
X111264000Y-109612380D02*
X111264000Y-108612380D01*
X111168761Y-108755238D01*
X111073523Y-108850476D01*
X110978285Y-108898095D01*
%TD*%
M02*
