%TF.GenerationSoftware,KiCad,Pcbnew,(5.1.9)-1*%
%TF.CreationDate,2022-05-22T22:27:41-05:00*%
%TF.ProjectId,rx02-emulator-mega-shield,72783032-2d65-46d7-956c-61746f722d6d,rev?*%
%TF.SameCoordinates,Original*%
%TF.FileFunction,Soldermask,Bot*%
%TF.FilePolarity,Negative*%
%FSLAX46Y46*%
G04 Gerber Fmt 4.6, Leading zero omitted, Abs format (unit mm)*
G04 Created by KiCad (PCBNEW (5.1.9)-1) date 2022-05-22 22:27:41*
%MOMM*%
%LPD*%
G01*
G04 APERTURE LIST*
%ADD10O,2.000000X1.200000*%
%ADD11R,1.100000X1.800000*%
%ADD12C,3.000000*%
%ADD13O,1.800000X2.600000*%
%ADD14R,1.800000X2.600000*%
%ADD15O,1.600000X1.600000*%
%ADD16C,1.600000*%
%ADD17C,2.000000*%
%ADD18O,1.400000X1.400000*%
%ADD19C,1.400000*%
%ADD20O,1.600000X2.400000*%
%ADD21R,1.600000X2.400000*%
%ADD22R,1.222000X1.222000*%
%ADD23C,1.222000*%
%ADD24C,1.700000*%
%ADD25C,1.800000*%
%ADD26R,1.800000X1.800000*%
%ADD27R,1.600000X1.600000*%
%ADD28C,1.727200*%
%ADD29O,1.727200X1.727200*%
%ADD30O,1.727200X2.032000*%
G04 APERTURE END LIST*
D10*
%TO.C,MOD1*%
X141881200Y-77770800D03*
X141881200Y-80310800D03*
X141881200Y-82850800D03*
X141881200Y-85390800D03*
X141881200Y-87930800D03*
X141881200Y-90470800D03*
%TD*%
D11*
%TO.C,Q7*%
X191770000Y-78340000D03*
G36*
G01*
X189780000Y-77715000D02*
X189780000Y-78965000D01*
G75*
G02*
X189505000Y-79240000I-275000J0D01*
G01*
X188955000Y-79240000D01*
G75*
G02*
X188680000Y-78965000I0J275000D01*
G01*
X188680000Y-77715000D01*
G75*
G02*
X188955000Y-77440000I275000J0D01*
G01*
X189505000Y-77440000D01*
G75*
G02*
X189780000Y-77715000I0J-275000D01*
G01*
G37*
G36*
G01*
X191050000Y-79785000D02*
X191050000Y-81035000D01*
G75*
G02*
X190775000Y-81310000I-275000J0D01*
G01*
X190225000Y-81310000D01*
G75*
G02*
X189950000Y-81035000I0J275000D01*
G01*
X189950000Y-79785000D01*
G75*
G02*
X190225000Y-79510000I275000J0D01*
G01*
X190775000Y-79510000D01*
G75*
G02*
X191050000Y-79785000I0J-275000D01*
G01*
G37*
%TD*%
%TO.C,Q6*%
X191770000Y-83420000D03*
G36*
G01*
X189780000Y-82795000D02*
X189780000Y-84045000D01*
G75*
G02*
X189505000Y-84320000I-275000J0D01*
G01*
X188955000Y-84320000D01*
G75*
G02*
X188680000Y-84045000I0J275000D01*
G01*
X188680000Y-82795000D01*
G75*
G02*
X188955000Y-82520000I275000J0D01*
G01*
X189505000Y-82520000D01*
G75*
G02*
X189780000Y-82795000I0J-275000D01*
G01*
G37*
G36*
G01*
X191050000Y-84865000D02*
X191050000Y-86115000D01*
G75*
G02*
X190775000Y-86390000I-275000J0D01*
G01*
X190225000Y-86390000D01*
G75*
G02*
X189950000Y-86115000I0J275000D01*
G01*
X189950000Y-84865000D01*
G75*
G02*
X190225000Y-84590000I275000J0D01*
G01*
X190775000Y-84590000D01*
G75*
G02*
X191050000Y-84865000I0J-275000D01*
G01*
G37*
%TD*%
%TO.C,Q5*%
X191770000Y-93580000D03*
G36*
G01*
X189780000Y-92955000D02*
X189780000Y-94205000D01*
G75*
G02*
X189505000Y-94480000I-275000J0D01*
G01*
X188955000Y-94480000D01*
G75*
G02*
X188680000Y-94205000I0J275000D01*
G01*
X188680000Y-92955000D01*
G75*
G02*
X188955000Y-92680000I275000J0D01*
G01*
X189505000Y-92680000D01*
G75*
G02*
X189780000Y-92955000I0J-275000D01*
G01*
G37*
G36*
G01*
X191050000Y-95025000D02*
X191050000Y-96275000D01*
G75*
G02*
X190775000Y-96550000I-275000J0D01*
G01*
X190225000Y-96550000D01*
G75*
G02*
X189950000Y-96275000I0J275000D01*
G01*
X189950000Y-95025000D01*
G75*
G02*
X190225000Y-94750000I275000J0D01*
G01*
X190775000Y-94750000D01*
G75*
G02*
X191050000Y-95025000I0J-275000D01*
G01*
G37*
%TD*%
%TO.C,Q4*%
X191770000Y-88500000D03*
G36*
G01*
X189780000Y-87875000D02*
X189780000Y-89125000D01*
G75*
G02*
X189505000Y-89400000I-275000J0D01*
G01*
X188955000Y-89400000D01*
G75*
G02*
X188680000Y-89125000I0J275000D01*
G01*
X188680000Y-87875000D01*
G75*
G02*
X188955000Y-87600000I275000J0D01*
G01*
X189505000Y-87600000D01*
G75*
G02*
X189780000Y-87875000I0J-275000D01*
G01*
G37*
G36*
G01*
X191050000Y-89945000D02*
X191050000Y-91195000D01*
G75*
G02*
X190775000Y-91470000I-275000J0D01*
G01*
X190225000Y-91470000D01*
G75*
G02*
X189950000Y-91195000I0J275000D01*
G01*
X189950000Y-89945000D01*
G75*
G02*
X190225000Y-89670000I275000J0D01*
G01*
X190775000Y-89670000D01*
G75*
G02*
X191050000Y-89945000I0J-275000D01*
G01*
G37*
%TD*%
%TO.C,Q3*%
X191770000Y-98660000D03*
G36*
G01*
X189780000Y-98035000D02*
X189780000Y-99285000D01*
G75*
G02*
X189505000Y-99560000I-275000J0D01*
G01*
X188955000Y-99560000D01*
G75*
G02*
X188680000Y-99285000I0J275000D01*
G01*
X188680000Y-98035000D01*
G75*
G02*
X188955000Y-97760000I275000J0D01*
G01*
X189505000Y-97760000D01*
G75*
G02*
X189780000Y-98035000I0J-275000D01*
G01*
G37*
G36*
G01*
X191050000Y-100105000D02*
X191050000Y-101355000D01*
G75*
G02*
X190775000Y-101630000I-275000J0D01*
G01*
X190225000Y-101630000D01*
G75*
G02*
X189950000Y-101355000I0J275000D01*
G01*
X189950000Y-100105000D01*
G75*
G02*
X190225000Y-99830000I275000J0D01*
G01*
X190775000Y-99830000D01*
G75*
G02*
X191050000Y-100105000I0J-275000D01*
G01*
G37*
%TD*%
%TO.C,Q2*%
X191770000Y-108820000D03*
G36*
G01*
X189780000Y-108195000D02*
X189780000Y-109445000D01*
G75*
G02*
X189505000Y-109720000I-275000J0D01*
G01*
X188955000Y-109720000D01*
G75*
G02*
X188680000Y-109445000I0J275000D01*
G01*
X188680000Y-108195000D01*
G75*
G02*
X188955000Y-107920000I275000J0D01*
G01*
X189505000Y-107920000D01*
G75*
G02*
X189780000Y-108195000I0J-275000D01*
G01*
G37*
G36*
G01*
X191050000Y-110265000D02*
X191050000Y-111515000D01*
G75*
G02*
X190775000Y-111790000I-275000J0D01*
G01*
X190225000Y-111790000D01*
G75*
G02*
X189950000Y-111515000I0J275000D01*
G01*
X189950000Y-110265000D01*
G75*
G02*
X190225000Y-109990000I275000J0D01*
G01*
X190775000Y-109990000D01*
G75*
G02*
X191050000Y-110265000I0J-275000D01*
G01*
G37*
%TD*%
%TO.C,Q1*%
X191770000Y-103740000D03*
G36*
G01*
X189780000Y-103115000D02*
X189780000Y-104365000D01*
G75*
G02*
X189505000Y-104640000I-275000J0D01*
G01*
X188955000Y-104640000D01*
G75*
G02*
X188680000Y-104365000I0J275000D01*
G01*
X188680000Y-103115000D01*
G75*
G02*
X188955000Y-102840000I275000J0D01*
G01*
X189505000Y-102840000D01*
G75*
G02*
X189780000Y-103115000I0J-275000D01*
G01*
G37*
G36*
G01*
X191050000Y-105185000D02*
X191050000Y-106435000D01*
G75*
G02*
X190775000Y-106710000I-275000J0D01*
G01*
X190225000Y-106710000D01*
G75*
G02*
X189950000Y-106435000I0J275000D01*
G01*
X189950000Y-105185000D01*
G75*
G02*
X190225000Y-104910000I275000J0D01*
G01*
X190775000Y-104910000D01*
G75*
G02*
X191050000Y-105185000I0J-275000D01*
G01*
G37*
%TD*%
D12*
%TO.C,DS1*%
X181260000Y-66040000D03*
X181259480Y-97040700D03*
X106260900Y-97040700D03*
X106260900Y-66040000D03*
D13*
X149860000Y-66040000D03*
X147320000Y-66040000D03*
X144780000Y-66040000D03*
X142240000Y-66040000D03*
X139700000Y-66040000D03*
X137160000Y-66040000D03*
X134620000Y-66040000D03*
X132080000Y-66040000D03*
X129540000Y-66040000D03*
X127000000Y-66040000D03*
X124460000Y-66040000D03*
X121920000Y-66040000D03*
X119380000Y-66040000D03*
X116840000Y-66040000D03*
X114300000Y-66040000D03*
D14*
X111760000Y-66040000D03*
%TD*%
D15*
%TO.C,R23*%
X181610000Y-84328000D03*
D16*
X181610000Y-91948000D03*
%TD*%
D15*
%TO.C,R20*%
X178562000Y-84328000D03*
D16*
X178562000Y-91948000D03*
%TD*%
D15*
%TO.C,R18*%
X175514000Y-84328000D03*
D16*
X175514000Y-91948000D03*
%TD*%
D15*
%TO.C,R16*%
X172466000Y-84328000D03*
D16*
X172466000Y-91948000D03*
%TD*%
D15*
%TO.C,R14*%
X169418000Y-84328000D03*
D16*
X169418000Y-91948000D03*
%TD*%
D15*
%TO.C,R12*%
X166370000Y-84328000D03*
D16*
X166370000Y-91948000D03*
%TD*%
D15*
%TO.C,R10*%
X163322000Y-84328000D03*
D16*
X163322000Y-91948000D03*
%TD*%
D15*
%TO.C,R8*%
X160274000Y-84328000D03*
D16*
X160274000Y-91948000D03*
%TD*%
D15*
%TO.C,R6*%
X157226000Y-84328000D03*
D16*
X157226000Y-91948000D03*
%TD*%
D15*
%TO.C,R4*%
X154178000Y-84328000D03*
D16*
X154178000Y-91948000D03*
%TD*%
D15*
%TO.C,R2*%
X151130000Y-84328000D03*
D16*
X151130000Y-91948000D03*
%TD*%
D15*
%TO.C,R22*%
X181610000Y-74422000D03*
D16*
X181610000Y-82042000D03*
%TD*%
D15*
%TO.C,R19*%
X178562000Y-74422000D03*
D16*
X178562000Y-82042000D03*
%TD*%
D15*
%TO.C,R17*%
X175514000Y-74422000D03*
D16*
X175514000Y-82042000D03*
%TD*%
D15*
%TO.C,R15*%
X172466000Y-74422000D03*
D16*
X172466000Y-82042000D03*
%TD*%
D15*
%TO.C,R13*%
X169418000Y-74422000D03*
D16*
X169418000Y-82042000D03*
%TD*%
D15*
%TO.C,R11*%
X166370000Y-74422000D03*
D16*
X166370000Y-82042000D03*
%TD*%
D15*
%TO.C,R9*%
X163322000Y-74422000D03*
D16*
X163322000Y-82042000D03*
%TD*%
D15*
%TO.C,R7*%
X160274000Y-74422000D03*
D16*
X160274000Y-82042000D03*
%TD*%
D15*
%TO.C,R5*%
X157226000Y-74422000D03*
D16*
X157226000Y-82042000D03*
%TD*%
D15*
%TO.C,R3*%
X154178000Y-74422000D03*
D16*
X154178000Y-82042000D03*
%TD*%
D15*
%TO.C,R1*%
X151130000Y-74422000D03*
D16*
X151130000Y-82042000D03*
%TD*%
D15*
%TO.C,R21*%
X147320000Y-76200000D03*
D16*
X147320000Y-83820000D03*
%TD*%
D17*
%TO.C,SW2*%
X139850000Y-110490000D03*
X139850000Y-114990000D03*
X133350000Y-110490000D03*
X133350000Y-114990000D03*
%TD*%
D18*
%TO.C,R25*%
X166370000Y-114808000D03*
D19*
X171450000Y-114808000D03*
%TD*%
D20*
%TO.C,U1*%
X196088000Y-60960000D03*
X180848000Y-53340000D03*
X193548000Y-60960000D03*
X183388000Y-53340000D03*
X191008000Y-60960000D03*
X185928000Y-53340000D03*
X188468000Y-60960000D03*
X188468000Y-53340000D03*
X185928000Y-60960000D03*
X191008000Y-53340000D03*
X183388000Y-60960000D03*
X193548000Y-53340000D03*
X180848000Y-60960000D03*
D21*
X196088000Y-53340000D03*
%TD*%
D17*
%TO.C,SW4*%
X152400000Y-106680000D03*
X152400000Y-111180000D03*
X145900000Y-106680000D03*
X145900000Y-111180000D03*
%TD*%
%TO.C,SW3*%
X139850000Y-101600000D03*
X139850000Y-106100000D03*
X133350000Y-101600000D03*
X133350000Y-106100000D03*
%TD*%
%TO.C,SW1*%
X127150000Y-106680000D03*
X127150000Y-111180000D03*
X120650000Y-106680000D03*
X120650000Y-111180000D03*
%TD*%
D22*
%TO.C,RV1*%
X110490000Y-54610000D03*
D23*
X113030000Y-57150000D03*
X110490000Y-59690000D03*
%TD*%
D18*
%TO.C,R26*%
X173736000Y-114808000D03*
D19*
X178816000Y-114808000D03*
%TD*%
D18*
%TO.C,R24*%
X164084000Y-114808000D03*
D19*
X159004000Y-114808000D03*
%TD*%
D24*
%TO.C,J1*%
X121920000Y-57150000D03*
X124460000Y-57150000D03*
X127000000Y-57150000D03*
X129540000Y-57150000D03*
X132080000Y-57150000D03*
X134620000Y-57150000D03*
X137160000Y-57150000D03*
X139700000Y-57150000D03*
X142240000Y-57150000D03*
X144780000Y-57150000D03*
X147320000Y-57150000D03*
X149860000Y-57150000D03*
X152400000Y-57150000D03*
X154940000Y-57150000D03*
X157480000Y-57150000D03*
X160020000Y-57150000D03*
X162560000Y-57150000D03*
X165100000Y-57150000D03*
X167640000Y-57150000D03*
X170180000Y-57150000D03*
X121920000Y-54610000D03*
X124460000Y-54610000D03*
X127000000Y-54610000D03*
X129540000Y-54610000D03*
X132080000Y-54610000D03*
X134620000Y-54610000D03*
X137160000Y-54610000D03*
X139700000Y-54610000D03*
X142240000Y-54610000D03*
X144780000Y-54610000D03*
X147320000Y-54610000D03*
X149860000Y-54610000D03*
X152400000Y-54610000D03*
X154940000Y-54610000D03*
X157480000Y-54610000D03*
X160020000Y-54610000D03*
X162560000Y-54610000D03*
X165100000Y-54610000D03*
X167640000Y-54610000D03*
G36*
G01*
X169580000Y-53760000D02*
X170780000Y-53760000D01*
G75*
G02*
X171030000Y-54010000I0J-250000D01*
G01*
X171030000Y-55210000D01*
G75*
G02*
X170780000Y-55460000I-250000J0D01*
G01*
X169580000Y-55460000D01*
G75*
G02*
X169330000Y-55210000I0J250000D01*
G01*
X169330000Y-54010000D01*
G75*
G02*
X169580000Y-53760000I250000J0D01*
G01*
G37*
%TD*%
D25*
%TO.C,D3*%
X176276000Y-110236000D03*
D26*
X176276000Y-107696000D03*
%TD*%
D25*
%TO.C,D2*%
X168910000Y-110236000D03*
D26*
X168910000Y-107696000D03*
%TD*%
D25*
%TO.C,D1*%
X161544000Y-110236000D03*
D26*
X161544000Y-107696000D03*
%TD*%
D16*
%TO.C,C5*%
X158162000Y-94742000D03*
X153162000Y-94742000D03*
%TD*%
%TO.C,C4*%
X200152000Y-54436000D03*
X200152000Y-59436000D03*
%TD*%
%TO.C,C3*%
X171958000Y-94742000D03*
X176958000Y-94742000D03*
%TD*%
%TO.C,C2*%
X197652000Y-65786000D03*
D27*
X200152000Y-65786000D03*
%TD*%
D16*
%TO.C,C1*%
X109514000Y-105410000D03*
D27*
X112014000Y-105410000D03*
%TD*%
D28*
%TO.C,P1*%
X197358000Y-114046000D03*
D29*
X199898000Y-114046000D03*
X197358000Y-111506000D03*
X199898000Y-111506000D03*
X197358000Y-108966000D03*
X199898000Y-108966000D03*
X197358000Y-106426000D03*
X199898000Y-106426000D03*
X197358000Y-103886000D03*
X199898000Y-103886000D03*
X197358000Y-101346000D03*
X199898000Y-101346000D03*
X197358000Y-98806000D03*
X199898000Y-98806000D03*
X197358000Y-96266000D03*
X199898000Y-96266000D03*
X197358000Y-93726000D03*
X199898000Y-93726000D03*
X197358000Y-91186000D03*
X199898000Y-91186000D03*
X197358000Y-88646000D03*
X199898000Y-88646000D03*
X197358000Y-86106000D03*
X199898000Y-86106000D03*
X197358000Y-83566000D03*
X199898000Y-83566000D03*
X197358000Y-81026000D03*
X199898000Y-81026000D03*
X197358000Y-78486000D03*
X199898000Y-78486000D03*
X197358000Y-75946000D03*
X199898000Y-75946000D03*
X197358000Y-73406000D03*
X199898000Y-73406000D03*
X197358000Y-70866000D03*
X199898000Y-70866000D03*
%TD*%
D30*
%TO.C,P2*%
X131318000Y-119126000D03*
X133858000Y-119126000D03*
X136398000Y-119126000D03*
X138938000Y-119126000D03*
X141478000Y-119126000D03*
X144018000Y-119126000D03*
X146558000Y-119126000D03*
X149098000Y-119126000D03*
%TD*%
%TO.C,P3*%
X154178000Y-119126000D03*
X156718000Y-119126000D03*
X159258000Y-119126000D03*
X161798000Y-119126000D03*
X164338000Y-119126000D03*
X166878000Y-119126000D03*
X169418000Y-119126000D03*
X171958000Y-119126000D03*
%TD*%
%TO.C,P4*%
X177038000Y-119126000D03*
X179578000Y-119126000D03*
X182118000Y-119126000D03*
X184658000Y-119126000D03*
X187198000Y-119126000D03*
X189738000Y-119126000D03*
X192278000Y-119126000D03*
X194818000Y-119126000D03*
%TD*%
%TO.C,P5*%
X122174000Y-70866000D03*
X124714000Y-70866000D03*
X127254000Y-70866000D03*
X129794000Y-70866000D03*
X132334000Y-70866000D03*
X134874000Y-70866000D03*
X137414000Y-70866000D03*
X139954000Y-70866000D03*
X142494000Y-70866000D03*
X145034000Y-70866000D03*
%TD*%
%TO.C,P6*%
X149098000Y-70866000D03*
X151638000Y-70866000D03*
X154178000Y-70866000D03*
X156718000Y-70866000D03*
X159258000Y-70866000D03*
X161798000Y-70866000D03*
X164338000Y-70866000D03*
X166878000Y-70866000D03*
%TD*%
%TO.C,P7*%
X171958000Y-70866000D03*
X174498000Y-70866000D03*
X177038000Y-70866000D03*
X179578000Y-70866000D03*
X182118000Y-70866000D03*
X184658000Y-70866000D03*
X187198000Y-70866000D03*
X189738000Y-70866000D03*
%TD*%
M02*
