M48
; DRILL file {KiCad (5.1.9)-1} date 05/22/22 22:27:43
; FORMAT={-:-/ absolute / inch / decimal}
; #@! TF.CreationDate,2022-05-22T22:27:43-05:00
; #@! TF.GenerationSoftware,Kicad,Pcbnew,(5.1.9)-1
FMAT,2
INCH
T1C0.0276
T2C0.0281
T3C0.0295
T4C0.0315
T5C0.0354
T6C0.0394
T7C0.0400
T8C0.0433
T9C0.0472
T10C0.0984
%
G90
G05
T1
X6.26Y-4.52
X6.46Y-4.52
X6.55Y-4.52
X6.75Y-4.52
X6.84Y-4.52
X7.04Y-4.52
T2
X4.35Y-2.15
X4.35Y-2.35
X4.45Y-2.25
T3
X7.45Y-3.1
X7.45Y-3.3
X7.45Y-3.5
X7.45Y-3.7
X7.45Y-3.9
X7.45Y-4.1
X7.45Y-4.3
X7.5Y-3.15
X7.5Y-3.35
X7.5Y-3.55
X7.5Y-3.75
X7.5Y-3.95
X7.5Y-4.15
X7.5Y-4.35
X7.55Y-3.1
X7.55Y-3.3
X7.55Y-3.5
X7.55Y-3.7
X7.55Y-3.9
X7.55Y-4.1
X7.55Y-4.3
T4
X4.3116Y-4.15
X4.41Y-4.15
X5.5859Y-3.0618
X5.5859Y-3.1618
X5.5859Y-3.2618
X5.5859Y-3.3618
X5.5859Y-3.4618
X5.5859Y-3.5618
X5.8Y-3.0
X5.8Y-3.3
X5.95Y-2.93
X5.95Y-3.23
X5.95Y-3.32
X5.95Y-3.62
X6.03Y-3.73
X6.07Y-2.93
X6.07Y-3.23
X6.07Y-3.32
X6.07Y-3.62
X6.19Y-2.93
X6.19Y-3.23
X6.19Y-3.32
X6.19Y-3.62
X6.2269Y-3.73
X6.31Y-2.93
X6.31Y-3.23
X6.31Y-3.32
X6.31Y-3.62
X6.43Y-2.93
X6.43Y-3.23
X6.43Y-3.32
X6.43Y-3.62
X6.55Y-2.93
X6.55Y-3.23
X6.55Y-3.32
X6.55Y-3.62
X6.67Y-2.93
X6.67Y-3.23
X6.67Y-3.32
X6.67Y-3.62
X6.77Y-3.73
X6.79Y-2.93
X6.79Y-3.23
X6.79Y-3.32
X6.79Y-3.62
X6.91Y-2.93
X6.91Y-3.23
X6.91Y-3.32
X6.91Y-3.62
X6.9669Y-3.73
X7.03Y-2.93
X7.03Y-3.23
X7.03Y-3.32
X7.03Y-3.62
X7.12Y-2.1
X7.12Y-2.4
X7.15Y-2.93
X7.15Y-3.23
X7.15Y-3.32
X7.15Y-3.62
X7.22Y-2.1
X7.22Y-2.4
X7.32Y-2.1
X7.32Y-2.4
X7.42Y-2.1
X7.42Y-2.4
X7.52Y-2.1
X7.52Y-2.4
X7.62Y-2.1
X7.62Y-2.4
X7.72Y-2.1
X7.72Y-2.4
X7.7816Y-2.59
X7.88Y-2.1431
X7.88Y-2.34
X7.88Y-2.59
T5
X6.36Y-4.24
X6.36Y-4.34
X6.65Y-4.24
X6.65Y-4.34
X6.94Y-4.24
X6.94Y-4.34
T6
X4.8Y-2.15
X4.8Y-2.25
X4.9Y-2.15
X4.9Y-2.25
X5.0Y-2.15
X5.0Y-2.25
X5.1Y-2.15
X5.1Y-2.25
X5.2Y-2.15
X5.2Y-2.25
X5.3Y-2.15
X5.3Y-2.25
X5.4Y-2.15
X5.4Y-2.25
X5.5Y-2.15
X5.5Y-2.25
X5.6Y-2.15
X5.6Y-2.25
X5.7Y-2.15
X5.7Y-2.25
X5.8Y-2.15
X5.8Y-2.25
X5.9Y-2.15
X5.9Y-2.25
X6.0Y-2.15
X6.0Y-2.25
X6.1Y-2.15
X6.1Y-2.25
X6.2Y-2.15
X6.2Y-2.25
X6.3Y-2.15
X6.3Y-2.25
X6.4Y-2.15
X6.4Y-2.25
X6.5Y-2.15
X6.5Y-2.25
X6.6Y-2.15
X6.6Y-2.25
X6.7Y-2.15
X6.7Y-2.25
T7
X4.81Y-2.79
X4.91Y-2.79
X5.01Y-2.79
X5.11Y-2.79
X5.17Y-4.69
X5.21Y-2.79
X5.27Y-4.69
X5.31Y-2.79
X5.37Y-4.69
X5.41Y-2.79
X5.47Y-4.69
X5.51Y-2.79
X5.57Y-4.69
X5.61Y-2.79
X5.67Y-4.69
X5.71Y-2.79
X5.77Y-4.69
X5.87Y-2.79
X5.87Y-4.69
X5.97Y-2.79
X6.07Y-2.79
X6.07Y-4.69
X6.17Y-2.79
X6.17Y-4.69
X6.27Y-2.79
X6.27Y-4.69
X6.37Y-2.79
X6.37Y-4.69
X6.47Y-2.79
X6.47Y-4.69
X6.57Y-2.79
X6.57Y-4.69
X6.67Y-4.69
X6.77Y-2.79
X6.77Y-4.69
X6.87Y-2.79
X6.97Y-2.79
X6.97Y-4.69
X7.07Y-2.79
X7.07Y-4.69
X7.17Y-2.79
X7.17Y-4.69
X7.27Y-2.79
X7.27Y-4.69
X7.37Y-2.79
X7.37Y-4.69
X7.47Y-2.79
X7.47Y-4.69
X7.57Y-4.69
X7.67Y-4.69
X7.77Y-2.79
X7.77Y-2.89
X7.77Y-2.99
X7.77Y-3.09
X7.77Y-3.19
X7.77Y-3.29
X7.77Y-3.39
X7.77Y-3.49
X7.77Y-3.59
X7.77Y-3.69
X7.77Y-3.79
X7.77Y-3.89
X7.77Y-3.99
X7.77Y-4.09
X7.77Y-4.19
X7.77Y-4.29
X7.77Y-4.39
X7.77Y-4.49
X7.87Y-2.79
X7.87Y-2.89
X7.87Y-2.99
X7.87Y-3.09
X7.87Y-3.19
X7.87Y-3.29
X7.87Y-3.39
X7.87Y-3.49
X7.87Y-3.59
X7.87Y-3.69
X7.87Y-3.79
X7.87Y-3.89
X7.87Y-3.99
X7.87Y-4.09
X7.87Y-4.19
X7.87Y-4.29
X7.87Y-4.39
X7.87Y-4.49
T8
X4.75Y-4.2
X4.75Y-4.3772
X5.0059Y-4.2
X5.0059Y-4.3772
X5.25Y-4.0
X5.25Y-4.1772
X5.25Y-4.35
X5.25Y-4.5272
X5.5059Y-4.0
X5.5059Y-4.1772
X5.5059Y-4.35
X5.5059Y-4.5272
X5.7441Y-4.2
X5.7441Y-4.3772
X6.0Y-4.2
X6.0Y-4.3772
T9
X4.4Y-2.6
X4.5Y-2.6
X4.6Y-2.6
X4.7Y-2.6
X4.8Y-2.6
X4.9Y-2.6
X5.0Y-2.6
X5.1Y-2.6
X5.2Y-2.6
X5.3Y-2.6
X5.4Y-2.6
X5.5Y-2.6
X5.6Y-2.6
X5.7Y-2.6
X5.8Y-2.6
X5.9Y-2.6
T10
X4.1835Y-2.6
X4.1835Y-3.8205
X7.1362Y-3.8205
X7.1362Y-2.6
T0
M30
